<svg id="plantBackground"
  xmlns="http://www.w3.org/2000/svg" width="1920px" height="1080px" viewBox="0 0 1920 1080" preserveAspectRatio="xMidYMid slice">
  <defs>
    <style>
    #plantBackground * {
      transition: all 0.4s ease, transition: fill 10s ease, transition: fill-opacity 10s ease;
    }
    #plantBackground line {
      stroke-width: 0.5px;
      stroke: #010259;
      stroke-opacity: 0.4;
    }
    #plantBackground .stalk {
      fill: none;
      stroke: green;
    }
    #plantBackground .leaf, #plantBackground .flower {
      fill: green;
      fill-opacity: 1;
    }
    #plantBackground .fading {
      transition: fill-opacity 10s ease;
      fill: yellow;
      fill-opacity: 0.2;
    }
    @media screen and (prefers-reduced-motion: reduce) {
      #plantBackground circle {
        animation: none !important;
        display: none;
      }
    }
    @media print {
      #plantBackground circle {
        display: none;
      }
    }
    </style>
    <path id="leaf" class="leaf" d="M20,0 a10 10 0 0 1 0 20 a10 10 0 0 1 -20 0 v-20 Z"></path>
    <path id="flower" class="leaf" d="M0,0 a10 10 0 0 1 0 20 a10 10 0 0 1 -20 0 a10 10 0 0 1 0 -20 a10 10 0 0 1 20 0 Z"></path>
  </defs>
  <g class="plant">
    <path class="root stalk" d="M 1688.217015452302 823.2396045425188 C 1688.217015452302 705.6555822850704, 1541.6895731278462 559.1281399606148, 1646.0738787087473 454.7438343797137" stroke-width="2.5"></path>
    <path class="branch stalk" d="M 1646.0738787087473 454.7438343797137 C 1704.5333857880375 396.2843273004234, 1627.5596334404497 319.3105749528355, 1530.5669239266151 319.3105749528355 S 1530.5669239266151 402.9503182775075 1445.3507794157624 317.73417376665486" stroke-width="0.5063391611949437"></path>
    <path class="branch stalk" d="M 1646.0738787087473 454.7438343797137 C 1646.0738787087473 366.97294160871746, 1583.3596725356724 429.68714778179236, 1657.8516977588433 429.68714778179236 S 1752.4857519019024 335.05309363873334 1752.4857519019024 380.54063009047496" stroke-width="1.27892867447667"></path>
    <circle fill="red" r="2">
      <animateMotion dur="5s" repeatCount="indefinite" data-leaf="plant0leaf0" path="M 1688.217015452302 823.2396045425188 C 1688.217015452302 705.6555822850704, 1541.6895731278462 559.1281399606148, 1646.0738787087473 454.7438343797137 C 1704.5333857880375 396.2843273004234, 1627.5596334404497 319.3105749528355, 1530.5669239266151 319.3105749528355 S 1530.5669239266151 402.9503182775075 1445.3507794157624 317.73417376665486"></animateMotion>
    </circle>
    <circle fill="red" r="2">
      <animateMotion dur="5s" repeatCount="indefinite" data-leaf="plant0leaf1" path="M 1688.217015452302 823.2396045425188 C 1688.217015452302 705.6555822850704, 1541.6895731278462 559.1281399606148, 1646.0738787087473 454.7438343797137 C 1646.0738787087473 366.97294160871746, 1583.3596725356724 429.68714778179236, 1657.8516977588433 429.68714778179236 S 1752.4857519019024 335.05309363873334 1752.4857519019024 380.54063009047496"></animateMotion>
    </circle>
    <g transform="translate(1445.3507794157624,317.73417376665486)">
      <path class="leaf" transform="scale(0.44000000000000006) rotate(219.31846502217672)" d="M20,0 a10 10 0 0 1 0 20 a10 10 0 0 1 -20 0 v-20 Z"></path>
    </g>
    <g transform="translate(1752.4857519019024,380.54063009047496)">
      <path class="leaf" transform="scale(0.44000000000000006) rotate(103.85968863719036)" d="M20,0 a10 10 0 0 1 0 20 a10 10 0 0 1 -20 0 v-20 Z"></path>
    </g>
    <g transform="translate(1445.3507794157624,317.73417376665486)">
      <path class="fading leaf" transform="scale(5.2439976765999825) rotate(227.47911722938187)" d="M20,0 a10 10 0 0 1 0 20 a10 10 0 0 1 -20 0 v-20 Z"></path>
    </g>
    <g transform="translate(1752.4857519019024,380.54063009047496)">
      <path class="fading leaf" transform="scale(5.2439976765999825) rotate(110.22506201787331)" d="M20,0 a10 10 0 0 1 0 20 a10 10 0 0 1 -20 0 v-20 Z"></path>
    </g>
  </g>
  <g class="plant">
    <path class="root stalk" d="M 602.1924118594352 825.1377871653224 C 602.1924118594352 718.4716766668289, 747.4894138494528 573.1746746768113, 913.949965462283 406.7141230639811" stroke-width="2.5"></path>
    <path class="branch stalk" d="M 913.949965462283 406.7141230639811 C 854.8204914386044 406.7141230639811, 936.4786636549976 325.05595084758795, 936.4786636549976 273.74410535476636 S 844.5899640950145 273.74410535476636 844.5899640950145 332.86121758369023" stroke-width="0.9425764930577742"></path>
    <path class="branch stalk" d="M 913.949965462283 406.7141230639811 C 860.7388608198985 353.50301842159666, 813.0544905260151 353.50301842159666, 865.849800439274 406.29832833485557 S 865.849800439274 317.45008926610507 792.9999579587638 390.2999317466152" stroke-width="1.0730751318815375"></path>
    <circle fill="red" r="2">
      <animateMotion dur="5s" repeatCount="indefinite" data-leaf="plant0leaf0" path="M 602.1924118594352 825.1377871653224 C 602.1924118594352 718.4716766668289, 747.4894138494528 573.1746746768113, 913.949965462283 406.7141230639811 C 854.8204914386044 406.7141230639811, 936.4786636549976 325.05595084758795, 936.4786636549976 273.74410535476636 S 844.5899640950145 273.74410535476636 844.5899640950145 332.86121758369023"></animateMotion>
    </circle>
    <circle fill="red" r="2">
      <animateMotion dur="5s" repeatCount="indefinite" data-leaf="plant0leaf1" path="M 602.1924118594352 825.1377871653224 C 602.1924118594352 718.4716766668289, 747.4894138494528 573.1746746768113, 913.949965462283 406.7141230639811 C 860.7388608198985 353.50301842159666, 813.0544905260151 353.50301842159666, 865.849800439274 406.29832833485557 S 865.849800439274 317.45008926610507 792.9999579587638 390.2999317466152"></animateMotion>
    </circle>
    <g transform="translate(844.5899640950145,332.86121758369023)">
      <path class="leaf" transform="scale(0.44000000000000006) rotate(280.4607994832032)" d="M20,0 a10 10 0 0 1 0 20 a10 10 0 0 1 -20 0 v-20 Z"></path>
    </g>
    <g transform="translate(792.9999579587638,390.2999317466152)">
      <path class="leaf" transform="scale(0.44000000000000006) rotate(72.08104340264461)" d="M20,0 a10 10 0 0 1 0 20 a10 10 0 0 1 -20 0 v-20 Z"></path>
    </g>
    <g transform="translate(844.5899640950145,332.86121758369023)">
      <path class="fading leaf" transform="scale(5.2439976765999825) rotate(306.56215825708716)" d="M20,0 a10 10 0 0 1 0 20 a10 10 0 0 1 -20 0 v-20 Z"></path>
    </g>
    <g transform="translate(792.9999579587638,390.2999317466152)">
      <path class="fading leaf" transform="scale(5.2439976765999825) rotate(53.600603087104645)" d="M20,0 a10 10 0 0 1 0 20 a10 10 0 0 1 -20 0 v-20 Z"></path>
    </g>
  </g>
  <g class="plant">
    <path class="root stalk" d="M 73.69091366880824 810.5080148639789 C 73.69091366880824 645.6402226520163, 73.69091366880824 645.6402226520163, 180.78113038539155 538.550005935433 S 180.78113038539155 388.0697831479805 324.84395372539007 244.006959807982" stroke-width="2.5"></path>
    <path class="branch stalk" d="M 180.78113038539155 538.550005935433 C 108.74445472203169 466.5133302720731, 108.74445472203169 391.9327654277757, 24.545045498596735 391.9327654277757 S 24.545045498596735 310.91881774990674 24.545045498596735 310.91881774990674" stroke-width="1.4149608841207344"></path>
    <path class="branch stalk" d="M 180.78113038539155 538.550005935433 C 180.78113038539155 622.7214282537565, 124.58740967066984 566.5277075390347, 40.62810458040707 566.5277075390347 S 132.87639905742134 474.27941306202047 221.2304145789463 562.6334285835454" stroke-width="1.4505398607242819"></path>
    <path class="branch stalk" d="M 180.78113038539155 538.550005935433 C 133.88522788683628 538.550005935433, 195.79849339524594 476.6367404270233, 251.78753576138854 476.6367404270233 S 318.33667676940127 410.0875994190106 258.9903838281189 350.74130647772824" stroke-width="0.637749267582628"></path>
    <circle fill="red" r="2">
      <animateMotion dur="5s" repeatCount="indefinite" data-leaf="flower0" path="M 73.69091366880824 810.5080148639789 C 73.69091366880824 645.6402226520163, 73.69091366880824 645.6402226520163, 180.78113038539155 538.550005935433 S 180.78113038539155 388.0697831479805 324.84395372539007 244.006959807982"></animateMotion>
    </circle>
    <circle fill="red" r="2">
      <animateMotion dur="5s" repeatCount="indefinite" data-leaf="plant0leaf0" path="M 73.69091366880824 810.5080148639789 C 73.69091366880824 645.6402226520163, 73.69091366880824 645.6402226520163, 180.78113038539155 538.550005935433 C 108.74445472203169 466.5133302720731, 108.74445472203169 391.9327654277757, 24.545045498596735 391.9327654277757 S 24.545045498596735 310.91881774990674 24.545045498596735 310.91881774990674"></animateMotion>
    </circle>
    <circle fill="red" r="2">
      <animateMotion dur="5s" repeatCount="indefinite" data-leaf="plant0leaf1" path="M 73.69091366880824 810.5080148639789 C 73.69091366880824 645.6402226520163, 73.69091366880824 645.6402226520163, 180.78113038539155 538.550005935433 C 180.78113038539155 622.7214282537565, 124.58740967066984 566.5277075390347, 40.62810458040707 566.5277075390347 S 132.87639905742134 474.27941306202047 221.2304145789463 562.6334285835454"></animateMotion>
    </circle>
    <circle fill="red" r="2">
      <animateMotion dur="5s" repeatCount="indefinite" data-leaf="plant0leaf2" path="M 73.69091366880824 810.5080148639789 C 73.69091366880824 645.6402226520163, 73.69091366880824 645.6402226520163, 180.78113038539155 538.550005935433 C 133.88522788683628 538.550005935433, 195.79849339524594 476.6367404270233, 251.78753576138854 476.6367404270233 S 318.33667676940127 410.0875994190106 258.9903838281189 350.74130647772824"></animateMotion>
    </circle>
    <g transform="translate(24.545045498596735,310.91881774990674)">
      <path class="leaf" transform="scale(0.44000000000000006) rotate(202.027588731524)" d="M20,0 a10 10 0 0 1 0 20 a10 10 0 0 1 -20 0 v-20 Z"></path>
    </g>
    <g transform="translate(221.2304145789463,562.6334285835454)">
      <path class="leaf" transform="scale(0.44000000000000006) rotate(17.947809397019647)" d="M20,0 a10 10 0 0 1 0 20 a10 10 0 0 1 -20 0 v-20 Z"></path>
    </g>
    <g transform="translate(258.9903838281189,350.74130647772824)">
      <path class="leaf" transform="scale(0.44000000000000006) rotate(183.6307977724513)" d="M20,0 a10 10 0 0 1 0 20 a10 10 0 0 1 -20 0 v-20 Z"></path>
    </g>
    <g transform="translate(24.545045498596735,310.91881774990674)">
      <path class="fading leaf" transform="scale(5.2439976765999825) rotate(184.36508624048582)" d="M20,0 a10 10 0 0 1 0 20 a10 10 0 0 1 -20 0 v-20 Z"></path>
    </g>
    <g transform="translate(221.2304145789463,562.6334285835454)">
      <path class="fading leaf" transform="scale(5.2439976765999825) rotate(15.917895570978509)" d="M20,0 a10 10 0 0 1 0 20 a10 10 0 0 1 -20 0 v-20 Z"></path>
    </g>
    <g transform="translate(258.9903838281189,350.74130647772824)">
      <path class="fading leaf" transform="scale(5.2439976765999825) rotate(188.4392826567527)" d="M20,0 a10 10 0 0 1 0 20 a10 10 0 0 1 -20 0 v-20 Z"></path>
    </g>
    <g transform="translate(324.84395372539007,244.006959807982)">
      <path class="flower" transform="scale(2.357947691000002) rotate(44.93692111801764)" d="M0,0 a10 10 0 0 1 0 20 a10 10 0 0 1 -20 0 a10 10 0 0 1 0 -20 a10 10 0 0 1 20 0 Z"></path>
    </g>
    <g transform="translate(324.84395372539007,244.006959807982)">
      <path class="fading flower" transform="scale(6.115909044841463) rotate(44.93692111801764)" d="M0,0 a10 10 0 0 1 0 20 a10 10 0 0 1 -20 0 a10 10 0 0 1 0 -20 a10 10 0 0 1 20 0 Z"></path>
    </g>
  </g>
  <g class="plant">
    <path class="root stalk" d="M 1127.4390140124651 1022.0487113652061 C 1127.4390140124651 861.7323448746029, 1234.1336910445245 755.0376678425434, 1100.159957619472 621.0639344174908 S 972.5558196750292 621.0639344174908 840.1476088075082 488.6557235499698" stroke-width="2.5"></path>
    <path class="branch stalk" d="M 1100.159957619472 621.0639344174908 C 1100.159957619472 525.3476403385249, 1047.6951160001738 525.3476403385249, 1109.419537423015 587.0720617613662 S 1109.419537423015 655.0014071362469 1028.1220544520597 573.7039241652916" stroke-width="1.1540663730791514"></path>
    <path class="branch stalk" d="M 1100.159957619472 621.0639344174908 C 1100.159957619472 715.7085422623215, 1164.1965922089125 779.7451768517623, 1211.5878860549776 732.3538830056973 S 1124.986757401847 645.7527543525666 1124.986757401847 562.1582401933283" stroke-width="0.9069439557008765"></path>
    <path class="branch stalk" d="M 1100.159957619472 621.0639344174908 C 1150.17965883685 571.0442332001129, 1099.4986054771873 520.3631798404501, 1158.8692780812623 520.3631798404501 S 1108.5141851043106 570.7182728174018 1056.7752319088809 570.7182728174018" stroke-width="0.7588547919688402"></path>
    <path class="branch stalk" d="M 1100.159957619472 621.0639344174908 C 1022.8359376815396 543.7399144795585, 1101.4466545014357 465.1291976596623, 1101.4466545014357 400.12879871982244 S 1189.213834361735 312.361618859523 1103.7825950261417 226.9303795239297" stroke-width="1.1076031538767677"></path>
    <circle fill="red" r="2">
      <animateMotion dur="5s" repeatCount="indefinite" data-leaf="flower0" path="M 1127.4390140124651 1022.0487113652061 C 1127.4390140124651 861.7323448746029, 1234.1336910445245 755.0376678425434, 1100.159957619472 621.0639344174908 S 972.5558196750292 621.0639344174908 840.1476088075082 488.6557235499698"></animateMotion>
    </circle>
    <circle fill="red" r="2">
      <animateMotion dur="5s" repeatCount="indefinite" data-leaf="plant0leaf0" path="M 1127.4390140124651 1022.0487113652061 C 1127.4390140124651 861.7323448746029, 1234.1336910445245 755.0376678425434, 1100.159957619472 621.0639344174908 C 1100.159957619472 525.3476403385249, 1047.6951160001738 525.3476403385249, 1109.419537423015 587.0720617613662 S 1109.419537423015 655.0014071362469 1028.1220544520597 573.7039241652916"></animateMotion>
    </circle>
    <circle fill="red" r="2">
      <animateMotion dur="5s" repeatCount="indefinite" data-leaf="plant0leaf1" path="M 1127.4390140124651 1022.0487113652061 C 1127.4390140124651 861.7323448746029, 1234.1336910445245 755.0376678425434, 1100.159957619472 621.0639344174908 C 1100.159957619472 715.7085422623215, 1164.1965922089125 779.7451768517623, 1211.5878860549776 732.3538830056973 S 1124.986757401847 645.7527543525666 1124.986757401847 562.1582401933283"></animateMotion>
    </circle>
    <circle fill="red" r="2">
      <animateMotion dur="5s" repeatCount="indefinite" data-leaf="plant0leaf2" path="M 1127.4390140124651 1022.0487113652061 C 1127.4390140124651 861.7323448746029, 1234.1336910445245 755.0376678425434, 1100.159957619472 621.0639344174908 C 1150.17965883685 571.0442332001129, 1099.4986054771873 520.3631798404501, 1158.8692780812623 520.3631798404501 S 1108.5141851043106 570.7182728174018 1056.7752319088809 570.7182728174018"></animateMotion>
    </circle>
    <circle fill="red" r="2">
      <animateMotion dur="5s" repeatCount="indefinite" data-leaf="plant0leaf3" path="M 1127.4390140124651 1022.0487113652061 C 1127.4390140124651 861.7323448746029, 1234.1336910445245 755.0376678425434, 1100.159957619472 621.0639344174908 C 1022.8359376815396 543.7399144795585, 1101.4466545014357 465.1291976596623, 1101.4466545014357 400.12879871982244 S 1189.213834361735 312.361618859523 1103.7825950261417 226.9303795239297"></animateMotion>
    </circle>
    <g transform="translate(1028.1220544520597,573.7039241652916)">
      <path class="leaf" transform="scale(0.44000000000000006) rotate(173.74138755283033)" d="M20,0 a10 10 0 0 1 0 20 a10 10 0 0 1 -20 0 v-20 Z"></path>
    </g>
    <g transform="translate(1124.986757401847,562.1582401933283)">
      <path class="leaf" transform="scale(0.44000000000000006) rotate(-3.1460122844427545)" d="M20,0 a10 10 0 0 1 0 20 a10 10 0 0 1 -20 0 v-20 Z"></path>
    </g>
    <g transform="translate(1056.7752319088809,570.7182728174018)">
      <path class="leaf" transform="scale(0.44000000000000006) rotate(264.8886194552624)" d="M20,0 a10 10 0 0 1 0 20 a10 10 0 0 1 -20 0 v-20 Z"></path>
    </g>
    <g transform="translate(1103.7825950261417,226.9303795239297)">
      <path class="leaf" transform="scale(0.44000000000000006) rotate(301.58247491934554)" d="M20,0 a10 10 0 0 1 0 20 a10 10 0 0 1 -20 0 v-20 Z"></path>
    </g>
    <g transform="translate(1028.1220544520597,573.7039241652916)">
      <path class="fading leaf" transform="scale(5.2439976765999825) rotate(160.696918700666)" d="M20,0 a10 10 0 0 1 0 20 a10 10 0 0 1 -20 0 v-20 Z"></path>
    </g>
    <g transform="translate(1124.986757401847,562.1582401933283)">
      <path class="fading leaf" transform="scale(5.2439976765999825) rotate(-8.891360715882875)" d="M20,0 a10 10 0 0 1 0 20 a10 10 0 0 1 -20 0 v-20 Z"></path>
    </g>
    <g transform="translate(1056.7752319088809,570.7182728174018)">
      <path class="fading leaf" transform="scale(5.2439976765999825) rotate(291.44804710693006)" d="M20,0 a10 10 0 0 1 0 20 a10 10 0 0 1 -20 0 v-20 Z"></path>
    </g>
    <g transform="translate(1103.7825950261417,226.9303795239297)">
      <path class="fading leaf" transform="scale(5.2439976765999825) rotate(316.3627815962566)" d="M20,0 a10 10 0 0 1 0 20 a10 10 0 0 1 -20 0 v-20 Z"></path>
    </g>
    <g transform="translate(840.1476088075082,488.6557235499698)">
      <path class="flower" transform="scale(2.357947691000002) rotate(70.26399239111966)" d="M0,0 a10 10 0 0 1 0 20 a10 10 0 0 1 -20 0 a10 10 0 0 1 0 -20 a10 10 0 0 1 20 0 Z"></path>
    </g>
    <g transform="translate(840.1476088075082,488.6557235499698)">
      <path class="fading flower" transform="scale(6.115909044841463) rotate(70.26399239111966)" d="M0,0 a10 10 0 0 1 0 20 a10 10 0 0 1 -20 0 a10 10 0 0 1 0 -20 a10 10 0 0 1 20 0 Z"></path>
    </g>
  </g>
  <g class="plant">
    <path class="root stalk" d="M 577.1542140138951 1066.238542091627 C 577.1542140138951 885.1149829880407, 452.4468910808072 760.4076600549528, 614.8494981108386 598.0050530249214" stroke-width="2.5"></path>
    <path class="branch stalk" d="M 614.8494981108386 598.0050530249214 C 531.0256624623835 598.0050530249214, 478.69571846521177 545.6751090277496, 571.6576655821226 452.7131619108387 S 571.6576655821226 372.02306948063267 483.97512504354575 284.3405289420558" stroke-width="0.518103187362235"></path>
    <path class="branch stalk" d="M 614.8494981108386 598.0050530249214 C 556.5729096190526 598.0050530249214, 653.2210665865014 694.6532099923702, 589.1147254837825 694.6532099923702 S 499.105868966121 604.6443534747086 576.166836226877 527.5833862139527" stroke-width="0.9641286336435559"></path>
    <circle fill="red" r="2">
      <animateMotion dur="5s" repeatCount="indefinite" data-leaf="plant0leaf0" path="M 577.1542140138951 1066.238542091627 C 577.1542140138951 885.1149829880407, 452.4468910808072 760.4076600549528, 614.8494981108386 598.0050530249214 C 531.0256624623835 598.0050530249214, 478.69571846521177 545.6751090277496, 571.6576655821226 452.7131619108387 S 571.6576655821226 372.02306948063267 483.97512504354575 284.3405289420558"></animateMotion>
    </circle>
    <circle fill="red" r="2">
      <animateMotion dur="5s" repeatCount="indefinite" data-leaf="plant0leaf1" path="M 577.1542140138951 1066.238542091627 C 577.1542140138951 885.1149829880407, 452.4468910808072 760.4076600549528, 614.8494981108386 598.0050530249214 C 556.5729096190526 598.0050530249214, 653.2210665865014 694.6532099923702, 589.1147254837825 694.6532099923702 S 499.105868966121 604.6443534747086 576.166836226877 527.5833862139527"></animateMotion>
    </circle>
    <g transform="translate(483.97512504354575,284.3405289420558)">
      <path class="leaf" transform="scale(0.44000000000000006) rotate(61.53244880881181)" d="M20,0 a10 10 0 0 1 0 20 a10 10 0 0 1 -20 0 v-20 Z"></path>
    </g>
    <g transform="translate(576.166836226877,527.5833862139527)">
      <path class="leaf" transform="scale(0.44000000000000006) rotate(347.6813395587389)" d="M20,0 a10 10 0 0 1 0 20 a10 10 0 0 1 -20 0 v-20 Z"></path>
    </g>
    <g transform="translate(483.97512504354575,284.3405289420558)">
      <path class="fading leaf" transform="scale(5.2439976765999825) rotate(52.79910237697605)" d="M20,0 a10 10 0 0 1 0 20 a10 10 0 0 1 -20 0 v-20 Z"></path>
    </g>
    <g transform="translate(576.166836226877,527.5833862139527)">
      <path class="fading leaf" transform="scale(5.2439976765999825) rotate(359.4095042302875)" d="M20,0 a10 10 0 0 1 0 20 a10 10 0 0 1 -20 0 v-20 Z"></path>
    </g>
  </g>
  <g class="plant">
    <path class="root stalk" d="M 34.75998165122945 1044.422072337929 C 34.75998165122945 860.4090061350806, 182.70825669656097 712.4607310897491, 83.79271579648098 613.545190189669 S 83.79271579648098 453.54261268276525 83.79271579648098 453.54261268276525" stroke-width="2.5"></path>
    <path class="branch stalk" d="M 83.79271579648098 613.545190189669 C 83.79271579648098 709.0449753756377, 142.92719295504273 768.1794525341994, 96.87503696248872 768.1794525341994 S 96.87503696248872 672.9261281423991 22.519032281692233 672.9261281423991" stroke-width="1.3879192258576067"></path>
    <path class="branch stalk" d="M 83.79271579648098 613.545190189669 C 157.8729880520766 539.4649179340734, 234.88456089106197 539.4649179340734, 298.7926368277398 475.55684199739557 S 232.69998497563404 475.55684199739557 164.35679015244898 407.2136471742105" stroke-width="0.7989250166166741"></path>
    <path class="branch stalk" d="M 83.79271579648098 613.545190189669 C 146.78500933167 550.55289665448, 100.16529389495574 550.55289665448, 44.83660436668713 495.2242071262114 S 44.83660436668713 443.0531798931319 102.03929748638359 500.2558730128284" stroke-width="0.9452076516124832"></path>
    <circle fill="red" r="2">
      <animateMotion dur="5s" repeatCount="indefinite" data-leaf="flower0" path="M 34.75998165122945 1044.422072337929 C 34.75998165122945 860.4090061350806, 182.70825669656097 712.4607310897491, 83.79271579648098 613.545190189669 S 83.79271579648098 453.54261268276525 83.79271579648098 453.54261268276525"></animateMotion>
    </circle>
    <circle fill="red" r="2">
      <animateMotion dur="5s" repeatCount="indefinite" data-leaf="plant0leaf0" path="M 34.75998165122945 1044.422072337929 C 34.75998165122945 860.4090061350806, 182.70825669656097 712.4607310897491, 83.79271579648098 613.545190189669 C 83.79271579648098 709.0449753756377, 142.92719295504273 768.1794525341994, 96.87503696248872 768.1794525341994 S 96.87503696248872 672.9261281423991 22.519032281692233 672.9261281423991"></animateMotion>
    </circle>
    <circle fill="red" r="2">
      <animateMotion dur="5s" repeatCount="indefinite" data-leaf="plant0leaf1" path="M 34.75998165122945 1044.422072337929 C 34.75998165122945 860.4090061350806, 182.70825669656097 712.4607310897491, 83.79271579648098 613.545190189669 C 157.8729880520766 539.4649179340734, 234.88456089106197 539.4649179340734, 298.7926368277398 475.55684199739557 S 232.69998497563404 475.55684199739557 164.35679015244898 407.2136471742105"></animateMotion>
    </circle>
    <circle fill="red" r="2">
      <animateMotion dur="5s" repeatCount="indefinite" data-leaf="plant0leaf2" path="M 34.75998165122945 1044.422072337929 C 34.75998165122945 860.4090061350806, 182.70825669656097 712.4607310897491, 83.79271579648098 613.545190189669 C 146.78500933167 550.55289665448, 100.16529389495574 550.55289665448, 44.83660436668713 495.2242071262114 S 44.83660436668713 443.0531798931319 102.03929748638359 500.2558730128284"></animateMotion>
    </circle>
    <g transform="translate(22.519032281692233,672.9261281423991)">
      <path class="leaf" transform="scale(0.44000000000000006) rotate(304.7305683172077)" d="M20,0 a10 10 0 0 1 0 20 a10 10 0 0 1 -20 0 v-20 Z"></path>
    </g>
    <g transform="translate(164.35679015244898,407.2136471742105)">
      <path class="leaf" transform="scale(0.44000000000000006) rotate(212.53005056265408)" d="M20,0 a10 10 0 0 1 0 20 a10 10 0 0 1 -20 0 v-20 Z"></path>
    </g>
    <g transform="translate(102.03929748638359,500.2558730128284)">
      <path class="leaf" transform="scale(0.44000000000000006) rotate(36.54366522520568)" d="M20,0 a10 10 0 0 1 0 20 a10 10 0 0 1 -20 0 v-20 Z"></path>
    </g>
    <g transform="translate(22.519032281692233,672.9261281423991)">
      <path class="fading leaf" transform="scale(5.2439976765999825) rotate(304.92269387236433)" d="M20,0 a10 10 0 0 1 0 20 a10 10 0 0 1 -20 0 v-20 Z"></path>
    </g>
    <g transform="translate(164.35679015244898,407.2136471742105)">
      <path class="fading leaf" transform="scale(5.2439976765999825) rotate(225.00872118965424)" d="M20,0 a10 10 0 0 1 0 20 a10 10 0 0 1 -20 0 v-20 Z"></path>
    </g>
    <g transform="translate(102.03929748638359,500.2558730128284)">
      <path class="fading leaf" transform="scale(5.2439976765999825) rotate(29.42933577994549)" d="M20,0 a10 10 0 0 1 0 20 a10 10 0 0 1 -20 0 v-20 Z"></path>
    </g>
    <g transform="translate(83.79271579648098,453.54261268276525)">
      <path class="flower" transform="scale(2.357947691000002) rotate(63.68877141100008)" d="M0,0 a10 10 0 0 1 0 20 a10 10 0 0 1 -20 0 a10 10 0 0 1 0 -20 a10 10 0 0 1 20 0 Z"></path>
    </g>
    <g transform="translate(83.79271579648098,453.54261268276525)">
      <path class="fading flower" transform="scale(6.115909044841463) rotate(63.68877141100008)" d="M0,0 a10 10 0 0 1 0 20 a10 10 0 0 1 -20 0 a10 10 0 0 1 0 -20 a10 10 0 0 1 20 0 Z"></path>
    </g>
  </g>
  <g class="plant">
    <path class="root stalk" d="M 950.5927803733 979.932390069363 C 950.5927803733 826.6633316876073, 1045.7242258907393 731.5318861701679, 956.5208783849374 642.3285386643661 S 956.5208783849374 546.9562846173952 867.7715224208656 458.2069286533234" stroke-width="2.5"></path>
    <path class="branch stalk" d="M 956.5208783849374 642.3285386643661 C 1040.5003102301923 642.3285386643661, 985.6994374778534 697.129411416705, 917.327531526321 697.129411416705 S 917.327531526321 621.4979751555977 839.5591955197654 621.4979751555977" stroke-width="1.0858292596164176"></path>
    <path class="branch stalk" d="M 956.5208783849374 642.3285386643661 C 1006.401366657557 692.2090269369858, 946.803692668498 692.2090269369858, 946.803692668498 765.7052201714757 S 995.2790281124729 717.2298847275008 918.9146940322738 717.2298847275008" stroke-width="0.5523574039079244"></path>
    <circle fill="red" r="2">
      <animateMotion dur="5s" repeatCount="indefinite" data-leaf="flower0" path="M 950.5927803733 979.932390069363 C 950.5927803733 826.6633316876073, 1045.7242258907393 731.5318861701679, 956.5208783849374 642.3285386643661 S 956.5208783849374 546.9562846173952 867.7715224208656 458.2069286533234"></animateMotion>
    </circle>
    <circle fill="red" r="2">
      <animateMotion dur="5s" repeatCount="indefinite" data-leaf="plant0leaf0" path="M 950.5927803733 979.932390069363 C 950.5927803733 826.6633316876073, 1045.7242258907393 731.5318861701679, 956.5208783849374 642.3285386643661 C 1040.5003102301923 642.3285386643661, 985.6994374778534 697.129411416705, 917.327531526321 697.129411416705 S 917.327531526321 621.4979751555977 839.5591955197654 621.4979751555977"></animateMotion>
    </circle>
    <circle fill="red" r="2">
      <animateMotion dur="5s" repeatCount="indefinite" data-leaf="plant0leaf1" path="M 950.5927803733 979.932390069363 C 950.5927803733 826.6633316876073, 1045.7242258907393 731.5318861701679, 956.5208783849374 642.3285386643661 C 1006.401366657557 692.2090269369858, 946.803692668498 692.2090269369858, 946.803692668498 765.7052201714757 S 995.2790281124729 717.2298847275008 918.9146940322738 717.2298847275008"></animateMotion>
    </circle>
    <g transform="translate(839.5591955197654,621.4979751555977)">
      <path class="leaf" transform="scale(0.44000000000000006) rotate(214.64433359846515)" d="M20,0 a10 10 0 0 1 0 20 a10 10 0 0 1 -20 0 v-20 Z"></path>
    </g>
    <g transform="translate(918.9146940322738,717.2298847275008)">
      <path class="leaf" transform="scale(0.44000000000000006) rotate(295.435371617923)" d="M20,0 a10 10 0 0 1 0 20 a10 10 0 0 1 -20 0 v-20 Z"></path>
    </g>
    <g transform="translate(839.5591955197654,621.4979751555977)">
      <path class="fading leaf" transform="scale(5.2439976765999825) rotate(215.7962426895973)" d="M20,0 a10 10 0 0 1 0 20 a10 10 0 0 1 -20 0 v-20 Z"></path>
    </g>
    <g transform="translate(918.9146940322738,717.2298847275008)">
      <path class="fading leaf" transform="scale(5.2439976765999825) rotate(287.06842470076384)" d="M20,0 a10 10 0 0 1 0 20 a10 10 0 0 1 -20 0 v-20 Z"></path>
    </g>
    <g transform="translate(867.7715224208656,458.2069286533234)">
      <path class="flower" transform="scale(2.357947691000002) rotate(4.631011316597522)" d="M0,0 a10 10 0 0 1 0 20 a10 10 0 0 1 -20 0 a10 10 0 0 1 0 -20 a10 10 0 0 1 20 0 Z"></path>
    </g>
    <g transform="translate(867.7715224208656,458.2069286533234)">
      <path class="fading flower" transform="scale(6.115909044841463) rotate(4.631011316597522)" d="M0,0 a10 10 0 0 1 0 20 a10 10 0 0 1 -20 0 a10 10 0 0 1 0 -20 a10 10 0 0 1 20 0 Z"></path>
    </g>
  </g>
  <g class="plant">
    <path class="root stalk" d="M 1321.4184931220345 983.9513050380208 C 1321.4184931220345 842.5136310068469, 1440.4668272951978 723.4652968336835, 1261.2085379093373 723.4652968336835" stroke-width="2.5"></path>
    <path class="branch stalk" d="M 1261.2085379093373 723.4652968336835 C 1261.2085379093373 633.2991858769335, 1204.4163460972386 576.5069940648348, 1204.4163460972386 519.2169333925771 S 1250.9612445996258 472.6720348901897 1250.9612445996258 376.1993000724134" stroke-width="1.2355319170467431"></path>
    <path class="branch stalk" d="M 1261.2085379093373 723.4652968336835 C 1190.51694053495 652.773699459296, 1190.51694053495 743.9191586806531, 1255.6836831082148 678.7524161073883 S 1160.2999792163305 583.368712215504 1233.5194473289157 510.1492441029189" stroke-width="0.9995744364610581"></path>
    <path class="branch stalk" d="M 1261.2085379093373 723.4652968336835 C 1191.194020979304 723.4652968336835, 1191.194020979304 627.0030878144825, 1096.7999448973214 532.6090117324999 S 1034.7501742570148 532.6090117324999 1123.2775991913754 444.08158679813914" stroke-width="1.181129643364219"></path>
    <path class="branch stalk" d="M 1261.2085379093373 723.4652968336835 C 1261.2085379093373 769.8168840959373, 1165.354474951138 865.6709470541367, 1068.8998940593997 769.2163661623986 S 1119.7055007752908 718.4107594465074 1166.9565777655548 765.6618364367715" stroke-width="1.1491530922527995"></path>
    <circle fill="red" r="2">
      <animateMotion dur="5s" repeatCount="indefinite" data-leaf="plant0leaf0" path="M 1321.4184931220345 983.9513050380208 C 1321.4184931220345 842.5136310068469, 1440.4668272951978 723.4652968336835, 1261.2085379093373 723.4652968336835 C 1261.2085379093373 633.2991858769335, 1204.4163460972386 576.5069940648348, 1204.4163460972386 519.2169333925771 S 1250.9612445996258 472.6720348901897 1250.9612445996258 376.1993000724134"></animateMotion>
    </circle>
    <circle fill="red" r="2">
      <animateMotion dur="5s" repeatCount="indefinite" data-leaf="plant0leaf1" path="M 1321.4184931220345 983.9513050380208 C 1321.4184931220345 842.5136310068469, 1440.4668272951978 723.4652968336835, 1261.2085379093373 723.4652968336835 C 1190.51694053495 652.773699459296, 1190.51694053495 743.9191586806531, 1255.6836831082148 678.7524161073883 S 1160.2999792163305 583.368712215504 1233.5194473289157 510.1492441029189"></animateMotion>
    </circle>
    <circle fill="red" r="2">
      <animateMotion dur="5s" repeatCount="indefinite" data-leaf="plant0leaf2" path="M 1321.4184931220345 983.9513050380208 C 1321.4184931220345 842.5136310068469, 1440.4668272951978 723.4652968336835, 1261.2085379093373 723.4652968336835 C 1191.194020979304 723.4652968336835, 1191.194020979304 627.0030878144825, 1096.7999448973214 532.6090117324999 S 1034.7501742570148 532.6090117324999 1123.2775991913754 444.08158679813914"></animateMotion>
    </circle>
    <circle fill="red" r="2">
      <animateMotion dur="5s" repeatCount="indefinite" data-leaf="plant0leaf3" path="M 1321.4184931220345 983.9513050380208 C 1321.4184931220345 842.5136310068469, 1440.4668272951978 723.4652968336835, 1261.2085379093373 723.4652968336835 C 1261.2085379093373 769.8168840959373, 1165.354474951138 865.6709470541367, 1068.8998940593997 769.2163661623986 S 1119.7055007752908 718.4107594465074 1166.9565777655548 765.6618364367715"></animateMotion>
    </circle>
    <g transform="translate(1250.9612445996258,376.1993000724134)">
      <path class="leaf" transform="scale(0.44000000000000006) rotate(150.39343926463354)" d="M20,0 a10 10 0 0 1 0 20 a10 10 0 0 1 -20 0 v-20 Z"></path>
    </g>
    <g transform="translate(1233.5194473289157,510.1492441029189)">
      <path class="leaf" transform="scale(0.44000000000000006) rotate(322.0864530235583)" d="M20,0 a10 10 0 0 1 0 20 a10 10 0 0 1 -20 0 v-20 Z"></path>
    </g>
    <g transform="translate(1123.2775991913754,444.08158679813914)">
      <path class="leaf" transform="scale(0.44000000000000006) rotate(150.97988001586532)" d="M20,0 a10 10 0 0 1 0 20 a10 10 0 0 1 -20 0 v-20 Z"></path>
    </g>
    <g transform="translate(1166.9565777655548,765.6618364367715)">
      <path class="leaf" transform="scale(0.44000000000000006) rotate(-24.620473566099236)" d="M20,0 a10 10 0 0 1 0 20 a10 10 0 0 1 -20 0 v-20 Z"></path>
    </g>
    <g transform="translate(1250.9612445996258,376.1993000724134)">
      <path class="fading leaf" transform="scale(5.2439976765999825) rotate(144.82708904260616)" d="M20,0 a10 10 0 0 1 0 20 a10 10 0 0 1 -20 0 v-20 Z"></path>
    </g>
    <g transform="translate(1233.5194473289157,510.1492441029189)">
      <path class="fading leaf" transform="scale(5.2439976765999825) rotate(333.5434127891763)" d="M20,0 a10 10 0 0 1 0 20 a10 10 0 0 1 -20 0 v-20 Z"></path>
    </g>
    <g transform="translate(1123.2775991913754,444.08158679813914)">
      <path class="fading leaf" transform="scale(5.2439976765999825) rotate(161.46266263740128)" d="M20,0 a10 10 0 0 1 0 20 a10 10 0 0 1 -20 0 v-20 Z"></path>
    </g>
    <g transform="translate(1166.9565777655548,765.6618364367715)">
      <path class="fading leaf" transform="scale(5.2439976765999825) rotate(-27.862540734169798)" d="M20,0 a10 10 0 0 1 0 20 a10 10 0 0 1 -20 0 v-20 Z"></path>
    </g>
  </g>
  <g class="plant">
    <path class="root stalk" d="M 267.8648792026425 883.2587040461074 C 267.8648792026425 723.9587745765248, 129.48315931526784 585.5770546891501, 129.48315931526784 585.5770546891501 S 3.98540018668065 460.07929556056297 194.48433623541467 269.58035951182893" stroke-width="2.5"></path>
    <path class="branch stalk" d="M 129.48315931526784 585.5770546891501 C 223.24224430032282 679.3361396742051, 142.6050808785334 679.3361396742051, 142.6050808785334 767.0950697518707 S 222.15007931360384 687.5500713168003 134.0947854327625 599.494777435959" stroke-width="1.2589177444433175"></path>
    <path class="branch stalk" d="M 129.48315931526784 585.5770546891501 C 60.6007445823934 654.4594694220245, 60.6007445823934 654.4594694220245, 106.53131910365363 608.5288949007643 S 47.9015249077133 608.5288949007643 47.9015249077133 682.8327647106767" stroke-width="0.6632340155553658"></path>
    <path class="branch stalk" d="M 129.48315931526784 585.5770546891501 C 205.87799822353458 509.1822157808834, 120.08220880993943 423.3864263672882, 198.96798463220142 344.5006505450262 S 107.62005192112206 253.15271783394684 153.78678333110608 206.98598642396283" stroke-width="0.7594639576641602"></path>
    <circle fill="red" r="2">
      <animateMotion dur="5s" repeatCount="indefinite" data-leaf="flower0" path="M 267.8648792026425 883.2587040461074 C 267.8648792026425 723.9587745765248, 129.48315931526784 585.5770546891501, 129.48315931526784 585.5770546891501 S 3.98540018668065 460.07929556056297 194.48433623541467 269.58035951182893"></animateMotion>
    </circle>
    <circle fill="red" r="2">
      <animateMotion dur="5s" repeatCount="indefinite" data-leaf="plant0leaf0" path="M 267.8648792026425 883.2587040461074 C 267.8648792026425 723.9587745765248, 129.48315931526784 585.5770546891501, 129.48315931526784 585.5770546891501 C 223.24224430032282 679.3361396742051, 142.6050808785334 679.3361396742051, 142.6050808785334 767.0950697518707 S 222.15007931360384 687.5500713168003 134.0947854327625 599.494777435959"></animateMotion>
    </circle>
    <circle fill="red" r="2">
      <animateMotion dur="5s" repeatCount="indefinite" data-leaf="plant0leaf1" path="M 267.8648792026425 883.2587040461074 C 267.8648792026425 723.9587745765248, 129.48315931526784 585.5770546891501, 129.48315931526784 585.5770546891501 C 60.6007445823934 654.4594694220245, 60.6007445823934 654.4594694220245, 106.53131910365363 608.5288949007643 S 47.9015249077133 608.5288949007643 47.9015249077133 682.8327647106767"></animateMotion>
    </circle>
    <circle fill="red" r="2">
      <animateMotion dur="5s" repeatCount="indefinite" data-leaf="plant0leaf2" path="M 267.8648792026425 883.2587040461074 C 267.8648792026425 723.9587745765248, 129.48315931526784 585.5770546891501, 129.48315931526784 585.5770546891501 C 205.87799822353458 509.1822157808834, 120.08220880993943 423.3864263672882, 198.96798463220142 344.5006505450262 S 107.62005192112206 253.15271783394684 153.78678333110608 206.98598642396283"></animateMotion>
    </circle>
    <g transform="translate(134.0947854327625,599.494777435959)">
      <path class="leaf" transform="scale(0.44000000000000006) rotate(-41.47787229677722)" d="M20,0 a10 10 0 0 1 0 20 a10 10 0 0 1 -20 0 v-20 Z"></path>
    </g>
    <g transform="translate(47.9015249077133,682.8327647106767)">
      <path class="leaf" transform="scale(0.44000000000000006) rotate(356.6177858456828)" d="M20,0 a10 10 0 0 1 0 20 a10 10 0 0 1 -20 0 v-20 Z"></path>
    </g>
    <g transform="translate(153.78678333110608,206.98598642396283)">
      <path class="leaf" transform="scale(0.44000000000000006) rotate(-19.022931258395094)" d="M20,0 a10 10 0 0 1 0 20 a10 10 0 0 1 -20 0 v-20 Z"></path>
    </g>
    <g transform="translate(134.0947854327625,599.494777435959)">
      <path class="fading leaf" transform="scale(5.2439976765999825) rotate(-32.89933860862299)" d="M20,0 a10 10 0 0 1 0 20 a10 10 0 0 1 -20 0 v-20 Z"></path>
    </g>
    <g transform="translate(47.9015249077133,682.8327647106767)">
      <path class="fading leaf" transform="scale(5.2439976765999825) rotate(360)" d="M20,0 a10 10 0 0 1 0 20 a10 10 0 0 1 -20 0 v-20 Z"></path>
    </g>
    <g transform="translate(153.78678333110608,206.98598642396283)">
      <path class="fading leaf" transform="scale(5.2439976765999825) rotate(-23.364689286597375)" d="M20,0 a10 10 0 0 1 0 20 a10 10 0 0 1 -20 0 v-20 Z"></path>
    </g>
    <g transform="translate(194.48433623541467,269.58035951182893)">
      <path class="flower" transform="scale(2.357947691000002) rotate(60.438949169386845)" d="M0,0 a10 10 0 0 1 0 20 a10 10 0 0 1 -20 0 a10 10 0 0 1 0 -20 a10 10 0 0 1 20 0 Z"></path>
    </g>
    <g transform="translate(194.48433623541467,269.58035951182893)">
      <path class="fading flower" transform="scale(6.115909044841463) rotate(60.438949169386845)" d="M0,0 a10 10 0 0 1 0 20 a10 10 0 0 1 -20 0 a10 10 0 0 1 0 -20 a10 10 0 0 1 20 0 Z"></path>
    </g>
  </g>
  <g class="plant">
    <path class="root stalk" d="M 484.59755593065427 973.1121957345867 C 484.59755593065427 813.3475013860167, 633.1489133530889 664.796143963582, 463.56662802010146 495.2138586305946 S 624.8313539107057 333.9491327399903 466.6562871371848 333.9491327399903" stroke-width="2.5"></path>
    <path class="branch stalk" d="M 463.56662802010146 495.2138586305946 C 397.210487207199 428.8577178176921, 484.35681253329426 428.8577178176921, 556.7458044011224 356.46872594986394 S 556.7458044011224 271.3484787965284 472.04553441833775 271.3484787965284" stroke-width="0.7912672190533916"></path>
    <path class="branch stalk" d="M 463.56662802010146 495.2138586305946 C 463.56662802010146 585.9096902839749, 370.8306897934092 493.1737520572826, 441.58897969468234 422.4154621560095 S 441.58897969468234 373.25953127145544 504.2964548098243 310.5520561563135" stroke-width="1.1450400623255304"></path>
    <path class="branch stalk" d="M 463.56662802010146 495.2138586305946 C 375.24529807200383 495.2138586305946, 292.3896301957499 412.3581907543406, 208.6689234621248 496.0788974879657 S 280.6249751697503 568.0349491955913 214.23532076148967 568.0349491955913" stroke-width="1.120081797805201"></path>
    <path class="branch stalk" d="M 463.56662802010146 495.2138586305946 C 418.80189223705645 450.4491228475496, 500.1725320726018 369.0784830120042, 571.1759860425535 369.0784830120042 S 571.1759860425535 314.5273775609201 629.8507163599684 255.85264724350526" stroke-width="1.0278154836850828"></path>
    <circle fill="red" r="2">
      <animateMotion dur="5s" repeatCount="indefinite" data-leaf="flower0" path="M 484.59755593065427 973.1121957345867 C 484.59755593065427 813.3475013860167, 633.1489133530889 664.796143963582, 463.56662802010146 495.2138586305946 S 624.8313539107057 333.9491327399903 466.6562871371848 333.9491327399903"></animateMotion>
    </circle>
    <circle fill="red" r="2">
      <animateMotion dur="5s" repeatCount="indefinite" data-leaf="plant0leaf0" path="M 484.59755593065427 973.1121957345867 C 484.59755593065427 813.3475013860167, 633.1489133530889 664.796143963582, 463.56662802010146 495.2138586305946 C 397.210487207199 428.8577178176921, 484.35681253329426 428.8577178176921, 556.7458044011224 356.46872594986394 S 556.7458044011224 271.3484787965284 472.04553441833775 271.3484787965284"></animateMotion>
    </circle>
    <circle fill="red" r="2">
      <animateMotion dur="5s" repeatCount="indefinite" data-leaf="plant0leaf1" path="M 484.59755593065427 973.1121957345867 C 484.59755593065427 813.3475013860167, 633.1489133530889 664.796143963582, 463.56662802010146 495.2138586305946 C 463.56662802010146 585.9096902839749, 370.8306897934092 493.1737520572826, 441.58897969468234 422.4154621560095 S 441.58897969468234 373.25953127145544 504.2964548098243 310.5520561563135"></animateMotion>
    </circle>
    <circle fill="red" r="2">
      <animateMotion dur="5s" repeatCount="indefinite" data-leaf="plant0leaf2" path="M 484.59755593065427 973.1121957345867 C 484.59755593065427 813.3475013860167, 633.1489133530889 664.796143963582, 463.56662802010146 495.2138586305946 C 375.24529807200383 495.2138586305946, 292.3896301957499 412.3581907543406, 208.6689234621248 496.0788974879657 S 280.6249751697503 568.0349491955913 214.23532076148967 568.0349491955913"></animateMotion>
    </circle>
    <circle fill="red" r="2">
      <animateMotion dur="5s" repeatCount="indefinite" data-leaf="plant0leaf3" path="M 484.59755593065427 973.1121957345867 C 484.59755593065427 813.3475013860167, 633.1489133530889 664.796143963582, 463.56662802010146 495.2138586305946 C 418.80189223705645 450.4491228475496, 500.1725320726018 369.0784830120042, 571.1759860425535 369.0784830120042 S 571.1759860425535 314.5273775609201 629.8507163599684 255.85264724350526"></animateMotion>
    </circle>
    <g transform="translate(472.04553441833775,271.3484787965284)">
      <path class="leaf" transform="scale(0.44000000000000006) rotate(36.6602461946061)" d="M20,0 a10 10 0 0 1 0 20 a10 10 0 0 1 -20 0 v-20 Z"></path>
    </g>
    <g transform="translate(504.2964548098243,310.5520561563135)">
      <path class="leaf" transform="scale(0.44000000000000006) rotate(329.92053100198564)" d="M20,0 a10 10 0 0 1 0 20 a10 10 0 0 1 -20 0 v-20 Z"></path>
    </g>
    <g transform="translate(214.23532076148967,568.0349491955913)">
      <path class="leaf" transform="scale(0.44000000000000006) rotate(130.2493818549951)" d="M20,0 a10 10 0 0 1 0 20 a10 10 0 0 1 -20 0 v-20 Z"></path>
    </g>
    <g transform="translate(629.8507163599684,255.85264724350526)">
      <path class="leaf" transform="scale(0.44000000000000006) rotate(149.9941139295528)" d="M20,0 a10 10 0 0 1 0 20 a10 10 0 0 1 -20 0 v-20 Z"></path>
    </g>
    <g transform="translate(472.04553441833775,271.3484787965284)">
      <path class="fading leaf" transform="scale(5.2439976765999825) rotate(39.10396884073357)" d="M20,0 a10 10 0 0 1 0 20 a10 10 0 0 1 -20 0 v-20 Z"></path>
    </g>
    <g transform="translate(504.2964548098243,310.5520561563135)">
      <path class="fading leaf" transform="scale(5.2439976765999825) rotate(344.6578680414585)" d="M20,0 a10 10 0 0 1 0 20 a10 10 0 0 1 -20 0 v-20 Z"></path>
    </g>
    <g transform="translate(214.23532076148967,568.0349491955913)">
      <path class="fading leaf" transform="scale(5.2439976765999825) rotate(129.52532719928922)" d="M20,0 a10 10 0 0 1 0 20 a10 10 0 0 1 -20 0 v-20 Z"></path>
    </g>
    <g transform="translate(629.8507163599684,255.85264724350526)">
      <path class="fading leaf" transform="scale(5.2439976765999825) rotate(154.8144169114607)" d="M20,0 a10 10 0 0 1 0 20 a10 10 0 0 1 -20 0 v-20 Z"></path>
    </g>
    <g transform="translate(466.6562871371848,333.9491327399903)">
      <path class="flower" transform="scale(2.357947691000002) rotate(6.468108852030157)" d="M0,0 a10 10 0 0 1 0 20 a10 10 0 0 1 -20 0 a10 10 0 0 1 0 -20 a10 10 0 0 1 20 0 Z"></path>
    </g>
    <g transform="translate(466.6562871371848,333.9491327399903)">
      <path class="fading flower" transform="scale(6.115909044841463) rotate(6.468108852030157)" d="M0,0 a10 10 0 0 1 0 20 a10 10 0 0 1 -20 0 a10 10 0 0 1 0 -20 a10 10 0 0 1 20 0 Z"></path>
    </g>
  </g>
  <g class="plant">
    <path class="root stalk" d="M 974.0312353979593 1006.5393733769474 C 974.0312353979593 866.0389673589744, 1123.1314226731397 716.938780083794, 982.6144417952944 716.938780083794 S 982.6144417952944 530.9265281993481 800.2641934741248 530.9265281993481" stroke-width="2.5"></path>
    <path class="branch stalk" d="M 982.6144417952944 716.938780083794 C 891.5830898828443 625.9074281713439, 812.9478623288865 704.5426557253018, 812.9478623288865 637.3017921769667 S 745.5442954662974 569.8982253143777 745.5442954662974 497.49702072757435" stroke-width="1.1304658316168887"></path>
    <path class="branch stalk" d="M 982.6144417952944 716.938780083794 C 923.7742695414543 716.938780083794, 836.0155344157703 629.18004495811, 763.8218132500349 629.18004495811 S 763.8218132500349 566.3627688670274 702.9102684454351 505.4512240624277" stroke-width="1.4451182299686773"></path>
    <path class="branch stalk" d="M 982.6144417952944 716.938780083794 C 1049.8264381682839 649.7267837108044, 1049.8264381682839 696.918679102622, 1104.640204626894 642.1049126440118 S 1104.640204626894 570.1698913872368 1158.513035900735 624.0427226610778" stroke-width="1.395007215619306"></path>
    <path class="branch stalk" d="M 982.6144417952944 716.938780083794 C 897.9640736290196 716.938780083794, 807.9735452591194 626.9482517138938, 807.9735452591194 532.0218020555683 S 764.1092842619643 488.1575410584132 764.1092842619643 559.602616847721" stroke-width="1.02515323175693"></path>
    <circle fill="red" r="2">
      <animateMotion dur="5s" repeatCount="indefinite" data-leaf="flower0" path="M 974.0312353979593 1006.5393733769474 C 974.0312353979593 866.0389673589744, 1123.1314226731397 716.938780083794, 982.6144417952944 716.938780083794 S 982.6144417952944 530.9265281993481 800.2641934741248 530.9265281993481"></animateMotion>
    </circle>
    <circle fill="red" r="2">
      <animateMotion dur="5s" repeatCount="indefinite" data-leaf="plant0leaf0" path="M 974.0312353979593 1006.5393733769474 C 974.0312353979593 866.0389673589744, 1123.1314226731397 716.938780083794, 982.6144417952944 716.938780083794 C 891.5830898828443 625.9074281713439, 812.9478623288865 704.5426557253018, 812.9478623288865 637.3017921769667 S 745.5442954662974 569.8982253143777 745.5442954662974 497.49702072757435"></animateMotion>
    </circle>
    <circle fill="red" r="2">
      <animateMotion dur="5s" repeatCount="indefinite" data-leaf="plant0leaf1" path="M 974.0312353979593 1006.5393733769474 C 974.0312353979593 866.0389673589744, 1123.1314226731397 716.938780083794, 982.6144417952944 716.938780083794 C 923.7742695414543 716.938780083794, 836.0155344157703 629.18004495811, 763.8218132500349 629.18004495811 S 763.8218132500349 566.3627688670274 702.9102684454351 505.4512240624277"></animateMotion>
    </circle>
    <circle fill="red" r="2">
      <animateMotion dur="5s" repeatCount="indefinite" data-leaf="plant0leaf2" path="M 974.0312353979593 1006.5393733769474 C 974.0312353979593 866.0389673589744, 1123.1314226731397 716.938780083794, 982.6144417952944 716.938780083794 C 1049.8264381682839 649.7267837108044, 1049.8264381682839 696.918679102622, 1104.640204626894 642.1049126440118 S 1104.640204626894 570.1698913872368 1158.513035900735 624.0427226610778"></animateMotion>
    </circle>
    <circle fill="red" r="2">
      <animateMotion dur="5s" repeatCount="indefinite" data-leaf="plant0leaf3" path="M 974.0312353979593 1006.5393733769474 C 974.0312353979593 866.0389673589744, 1123.1314226731397 716.938780083794, 982.6144417952944 716.938780083794 C 897.9640736290196 716.938780083794, 807.9735452591194 626.9482517138938, 807.9735452591194 532.0218020555683 S 764.1092842619643 488.1575410584132 764.1092842619643 559.602616847721"></animateMotion>
    </circle>
    <g transform="translate(745.5442954662974,497.49702072757435)">
      <path class="leaf" transform="scale(0.44000000000000006) rotate(291.5834704578054)" d="M20,0 a10 10 0 0 1 0 20 a10 10 0 0 1 -20 0 v-20 Z"></path>
    </g>
    <g transform="translate(702.9102684454351,505.4512240624277)">
      <path class="leaf" transform="scale(0.44000000000000006) rotate(102.5304102937891)" d="M20,0 a10 10 0 0 1 0 20 a10 10 0 0 1 -20 0 v-20 Z"></path>
    </g>
    <g transform="translate(1158.513035900735,624.0427226610778)">
      <path class="leaf" transform="scale(0.44000000000000006) rotate(85.61568062504857)" d="M20,0 a10 10 0 0 1 0 20 a10 10 0 0 1 -20 0 v-20 Z"></path>
    </g>
    <g transform="translate(764.1092842619643,559.602616847721)">
      <path class="leaf" transform="scale(0.44000000000000006) rotate(195.97764676676974)" d="M20,0 a10 10 0 0 1 0 20 a10 10 0 0 1 -20 0 v-20 Z"></path>
    </g>
    <g transform="translate(745.5442954662974,497.49702072757435)">
      <path class="fading leaf" transform="scale(5.2439976765999825) rotate(321.00008650419903)" d="M20,0 a10 10 0 0 1 0 20 a10 10 0 0 1 -20 0 v-20 Z"></path>
    </g>
    <g transform="translate(702.9102684454351,505.4512240624277)">
      <path class="fading leaf" transform="scale(5.2439976765999825) rotate(70.2573891190284)" d="M20,0 a10 10 0 0 1 0 20 a10 10 0 0 1 -20 0 v-20 Z"></path>
    </g>
    <g transform="translate(1158.513035900735,624.0427226610778)">
      <path class="fading leaf" transform="scale(5.2439976765999825) rotate(81.83066958993729)" d="M20,0 a10 10 0 0 1 0 20 a10 10 0 0 1 -20 0 v-20 Z"></path>
    </g>
    <g transform="translate(764.1092842619643,559.602616847721)">
      <path class="fading leaf" transform="scale(5.2439976765999825) rotate(181.48567387436182)" d="M20,0 a10 10 0 0 1 0 20 a10 10 0 0 1 -20 0 v-20 Z"></path>
    </g>
    <g transform="translate(800.2641934741248,530.9265281993481)">
      <path class="flower" transform="scale(2.357947691000002) rotate(1.2171936443059095)" d="M0,0 a10 10 0 0 1 0 20 a10 10 0 0 1 -20 0 a10 10 0 0 1 0 -20 a10 10 0 0 1 20 0 Z"></path>
    </g>
    <g transform="translate(800.2641934741248,530.9265281993481)">
      <path class="fading flower" transform="scale(6.115909044841463) rotate(1.2171936443059095)" d="M0,0 a10 10 0 0 1 0 20 a10 10 0 0 1 -20 0 a10 10 0 0 1 0 -20 a10 10 0 0 1 20 0 Z"></path>
    </g>
  </g>
  <g class="plant">
    <path class="root stalk" d="M 1116.9716715213963 762.9323247368615 C 1116.9716715213963 618.4368478493683, 1259.3137995143106 476.0947198564538, 1346.3621577484378 389.0463616223266 S 1346.3621577484378 239.2270570976909 1164.491344545745 239.2270570976909" stroke-width="2.5"></path>
    <path class="branch stalk" d="M 1346.3621577484378 389.0463616223266 C 1274.1250757630626 316.8092796369513, 1185.960827470484 316.8092796369513, 1101.1647485673284 232.0132007337956 S 1032.6545386662892 300.5234106348347 977.9541967802186 300.5234106348347" stroke-width="1.45305190732283"></path>
    <path class="branch stalk" d="M 1346.3621577484378 389.0463616223266 C 1393.5512948150963 341.8572245556679, 1304.2648134746894 252.5707432152609, 1219.7770438239522 252.5707432152609 S 1297.5589135405476 174.78887349866557 1297.5589135405476 223.63008880827363" stroke-width="0.6378868469524206"></path>
    <path class="branch stalk" d="M 1346.3621577484378 389.0463616223266 C 1394.5208955723695 340.8876237983948, 1322.4006578896779 340.8876237983948, 1230.7555298888449 432.53275179922775 S 1230.7555298888449 356.8462065927157 1177.5277753105145 410.0739611710461" stroke-width="1.3412316237736979"></path>
    <circle fill="red" r="2">
      <animateMotion dur="5s" repeatCount="indefinite" data-leaf="flower0" path="M 1116.9716715213963 762.9323247368615 C 1116.9716715213963 618.4368478493683, 1259.3137995143106 476.0947198564538, 1346.3621577484378 389.0463616223266 S 1346.3621577484378 239.2270570976909 1164.491344545745 239.2270570976909"></animateMotion>
    </circle>
    <circle fill="red" r="2">
      <animateMotion dur="5s" repeatCount="indefinite" data-leaf="plant0leaf0" path="M 1116.9716715213963 762.9323247368615 C 1116.9716715213963 618.4368478493683, 1259.3137995143106 476.0947198564538, 1346.3621577484378 389.0463616223266 C 1274.1250757630626 316.8092796369513, 1185.960827470484 316.8092796369513, 1101.1647485673284 232.0132007337956 S 1032.6545386662892 300.5234106348347 977.9541967802186 300.5234106348347"></animateMotion>
    </circle>
    <circle fill="red" r="2">
      <animateMotion dur="5s" repeatCount="indefinite" data-leaf="plant0leaf1" path="M 1116.9716715213963 762.9323247368615 C 1116.9716715213963 618.4368478493683, 1259.3137995143106 476.0947198564538, 1346.3621577484378 389.0463616223266 C 1393.5512948150963 341.8572245556679, 1304.2648134746894 252.5707432152609, 1219.7770438239522 252.5707432152609 S 1297.5589135405476 174.78887349866557 1297.5589135405476 223.63008880827363"></animateMotion>
    </circle>
    <circle fill="red" r="2">
      <animateMotion dur="5s" repeatCount="indefinite" data-leaf="plant0leaf2" path="M 1116.9716715213963 762.9323247368615 C 1116.9716715213963 618.4368478493683, 1259.3137995143106 476.0947198564538, 1346.3621577484378 389.0463616223266 C 1394.5208955723695 340.8876237983948, 1322.4006578896779 340.8876237983948, 1230.7555298888449 432.53275179922775 S 1230.7555298888449 356.8462065927157 1177.5277753105145 410.0739611710461"></animateMotion>
    </circle>
    <g transform="translate(977.9541967802186,300.5234106348347)">
      <path class="leaf" transform="scale(0.44000000000000006) rotate(257.57953276027933)" d="M20,0 a10 10 0 0 1 0 20 a10 10 0 0 1 -20 0 v-20 Z"></path>
    </g>
    <g transform="translate(1297.5589135405476,223.63008880827363)">
      <path class="leaf" transform="scale(0.44000000000000006) rotate(-46.85654577553121)" d="M20,0 a10 10 0 0 1 0 20 a10 10 0 0 1 -20 0 v-20 Z"></path>
    </g>
    <g transform="translate(1177.5277753105145,410.0739611710461)">
      <path class="leaf" transform="scale(0.44000000000000006) rotate(-1.9420208152668827)" d="M20,0 a10 10 0 0 1 0 20 a10 10 0 0 1 -20 0 v-20 Z"></path>
    </g>
    <g transform="translate(977.9541967802186,300.5234106348347)">
      <path class="fading leaf" transform="scale(5.2439976765999825) rotate(273.6602604664993)" d="M20,0 a10 10 0 0 1 0 20 a10 10 0 0 1 -20 0 v-20 Z"></path>
    </g>
    <g transform="translate(1297.5589135405476,223.63008880827363)">
      <path class="fading leaf" transform="scale(5.2439976765999825) rotate(-48.40593549451263)" d="M20,0 a10 10 0 0 1 0 20 a10 10 0 0 1 -20 0 v-20 Z"></path>
    </g>
    <g transform="translate(1177.5277753105145,410.0739611710461)">
      <path class="fading leaf" transform="scale(5.2439976765999825) rotate(14.544570224717692)" d="M20,0 a10 10 0 0 1 0 20 a10 10 0 0 1 -20 0 v-20 Z"></path>
    </g>
    <g transform="translate(1164.491344545745,239.2270570976909)">
      <path class="flower" transform="scale(2.357947691000002) rotate(24.43972033260332)" d="M0,0 a10 10 0 0 1 0 20 a10 10 0 0 1 -20 0 a10 10 0 0 1 0 -20 a10 10 0 0 1 20 0 Z"></path>
    </g>
    <g transform="translate(1164.491344545745,239.2270570976909)">
      <path class="fading flower" transform="scale(6.115909044841463) rotate(24.43972033260332)" d="M0,0 a10 10 0 0 1 0 20 a10 10 0 0 1 -20 0 a10 10 0 0 1 0 -20 a10 10 0 0 1 20 0 Z"></path>
    </g>
  </g>
  <g class="plant">
    <path class="root stalk" d="M 214.7231845046734 976.98564772484 C 214.7231845046734 864.5778346775312, 32.857888556883154 682.7125387297409, 32.857888556883154 682.7125387297409 S 32.857888556883154 537.8915700385787 32.857888556883154 537.8915700385787" stroke-width="2.5"></path>
    <path class="branch stalk" d="M 32.857888556883154 682.7125387297409 C 84.04155745654755 631.5288698300765, 154.92183963404025 702.4091520075692, 108.29364716416882 702.4091520075692 S 108.29364716416882 619.1363930579956 154.58853957229513 619.1363930579956" stroke-width="1.433384979993616"></path>
    <path class="branch stalk" d="M 32.857888556883154 682.7125387297409 C 32.857888556883154 611.6731061335162, 120.38365099529906 524.1473436951003, 120.38365099529906 470.7921792246065 S 209.33693644867662 381.838893771229 209.33693644867662 323.3282587931604" stroke-width="1.0481291975001856"></path>
    <path class="branch stalk" d="M 32.857888556883154 682.7125387297409 C 32.857888556883154 682.7125387297409, 32.857888556883154 682.7125387297409, 32.857888556883154 682.7125387297409 S 32.857888556883154 605.0549367530742 32.857888556883154 605.0549367530742" stroke-width="0.7230257004084504"></path>
    <circle fill="red" r="2">
      <animateMotion dur="5s" repeatCount="indefinite" data-leaf="flower0" path="M 214.7231845046734 976.98564772484 C 214.7231845046734 864.5778346775312, 32.857888556883154 682.7125387297409, 32.857888556883154 682.7125387297409 S 32.857888556883154 537.8915700385787 32.857888556883154 537.8915700385787"></animateMotion>
    </circle>
    <circle fill="red" r="2">
      <animateMotion dur="5s" repeatCount="indefinite" data-leaf="plant0leaf0" path="M 214.7231845046734 976.98564772484 C 214.7231845046734 864.5778346775312, 32.857888556883154 682.7125387297409, 32.857888556883154 682.7125387297409 C 84.04155745654755 631.5288698300765, 154.92183963404025 702.4091520075692, 108.29364716416882 702.4091520075692 S 108.29364716416882 619.1363930579956 154.58853957229513 619.1363930579956"></animateMotion>
    </circle>
    <circle fill="red" r="2">
      <animateMotion dur="5s" repeatCount="indefinite" data-leaf="plant0leaf1" path="M 214.7231845046734 976.98564772484 C 214.7231845046734 864.5778346775312, 32.857888556883154 682.7125387297409, 32.857888556883154 682.7125387297409 C 32.857888556883154 611.6731061335162, 120.38365099529906 524.1473436951003, 120.38365099529906 470.7921792246065 S 209.33693644867662 381.838893771229 209.33693644867662 323.3282587931604"></animateMotion>
    </circle>
    <circle fill="red" r="2">
      <animateMotion dur="5s" repeatCount="indefinite" data-leaf="plant0leaf2" path="M 214.7231845046734 976.98564772484 C 214.7231845046734 864.5778346775312, 32.857888556883154 682.7125387297409, 32.857888556883154 682.7125387297409 C 32.857888556883154 682.7125387297409, 32.857888556883154 682.7125387297409, 32.857888556883154 682.7125387297409 S 32.857888556883154 605.0549367530742 32.857888556883154 605.0549367530742"></animateMotion>
    </circle>
    <g transform="translate(154.58853957229513,619.1363930579956)">
      <path class="leaf" transform="scale(0.44000000000000006) rotate(129.17910966042461)" d="M20,0 a10 10 0 0 1 0 20 a10 10 0 0 1 -20 0 v-20 Z"></path>
    </g>
    <g transform="translate(209.33693644867662,323.3282587931604)">
      <path class="leaf" transform="scale(0.44000000000000006) rotate(129.7507944866294)" d="M20,0 a10 10 0 0 1 0 20 a10 10 0 0 1 -20 0 v-20 Z"></path>
    </g>
    <g transform="translate(32.857888556883154,605.0549367530742)">
      <path class="leaf" transform="scale(0.44000000000000006) rotate(179.04657734207566)" d="M20,0 a10 10 0 0 1 0 20 a10 10 0 0 1 -20 0 v-20 Z"></path>
    </g>
    <g transform="translate(154.58853957229513,619.1363930579956)">
      <path class="fading leaf" transform="scale(5.2439976765999825) rotate(141.83075505999568)" d="M20,0 a10 10 0 0 1 0 20 a10 10 0 0 1 -20 0 v-20 Z"></path>
    </g>
    <g transform="translate(209.33693644867662,323.3282587931604)">
      <path class="fading leaf" transform="scale(5.2439976765999825) rotate(118.30645780621228)" d="M20,0 a10 10 0 0 1 0 20 a10 10 0 0 1 -20 0 v-20 Z"></path>
    </g>
    <g transform="translate(32.857888556883154,605.0549367530742)">
      <path class="fading leaf" transform="scale(5.2439976765999825) rotate(189.61440117825182)" d="M20,0 a10 10 0 0 1 0 20 a10 10 0 0 1 -20 0 v-20 Z"></path>
    </g>
    <g transform="translate(32.857888556883154,537.8915700385787)">
      <path class="flower" transform="scale(2.357947691000002) rotate(34.08616235297135)" d="M0,0 a10 10 0 0 1 0 20 a10 10 0 0 1 -20 0 a10 10 0 0 1 0 -20 a10 10 0 0 1 20 0 Z"></path>
    </g>
    <g transform="translate(32.857888556883154,537.8915700385787)">
      <path class="fading flower" transform="scale(6.115909044841463) rotate(34.08616235297135)" d="M0,0 a10 10 0 0 1 0 20 a10 10 0 0 1 -20 0 a10 10 0 0 1 0 -20 a10 10 0 0 1 20 0 Z"></path>
    </g>
  </g>
  <g class="plant">
    <path class="root stalk" d="M 1264.3111955250547 818.3291318563042 C 1264.3111955250547 666.8338371857155, 1084.5709335083557 487.0935751690165, 959.0495332127731 361.57217487343394" stroke-width="2.5"></path>
    <path class="branch stalk" d="M 959.0495332127731 361.57217487343394 C 912.4793666028917 361.57217487343394, 840.5176006531902 289.6104089237325, 743.8724254820193 386.25558409490344 S 840.6480041810803 386.25558409490344 840.6480041810803 342.2675515703295" stroke-width="0.5348801684111932"></path>
    <path class="branch stalk" d="M 959.0495332127731 361.57217487343394 C 1044.169022919346 276.4526851668612, 974.3907871387606 276.4526851668612, 1022.2009630602304 228.6425092453915 S 1110.5809331093571 317.02247929451823 1110.5809331093571 256.1433343701009" stroke-width="1.3092168792431467"></path>
    <circle fill="red" r="2">
      <animateMotion dur="5s" repeatCount="indefinite" data-leaf="plant0leaf0" path="M 1264.3111955250547 818.3291318563042 C 1264.3111955250547 666.8338371857155, 1084.5709335083557 487.0935751690165, 959.0495332127731 361.57217487343394 C 912.4793666028917 361.57217487343394, 840.5176006531902 289.6104089237325, 743.8724254820193 386.25558409490344 S 840.6480041810803 386.25558409490344 840.6480041810803 342.2675515703295"></animateMotion>
    </circle>
    <circle fill="red" r="2">
      <animateMotion dur="5s" repeatCount="indefinite" data-leaf="plant0leaf1" path="M 1264.3111955250547 818.3291318563042 C 1264.3111955250547 666.8338371857155, 1084.5709335083557 487.0935751690165, 959.0495332127731 361.57217487343394 C 1044.169022919346 276.4526851668612, 974.3907871387606 276.4526851668612, 1022.2009630602304 228.6425092453915 S 1110.5809331093571 317.02247929451823 1110.5809331093571 256.1433343701009"></animateMotion>
    </circle>
    <g transform="translate(840.6480041810803,342.2675515703295)">
      <path class="leaf" transform="scale(0.44000000000000006) rotate(176.9747802368174)" d="M20,0 a10 10 0 0 1 0 20 a10 10 0 0 1 -20 0 v-20 Z"></path>
    </g>
    <g transform="translate(1110.5809331093571,256.1433343701009)">
      <path class="leaf" transform="scale(0.44000000000000006) rotate(265.1127505554064)" d="M20,0 a10 10 0 0 1 0 20 a10 10 0 0 1 -20 0 v-20 Z"></path>
    </g>
    <g transform="translate(840.6480041810803,342.2675515703295)">
      <path class="fading leaf" transform="scale(5.2439976765999825) rotate(169.48609803596798)" d="M20,0 a10 10 0 0 1 0 20 a10 10 0 0 1 -20 0 v-20 Z"></path>
    </g>
    <g transform="translate(1110.5809331093571,256.1433343701009)">
      <path class="fading leaf" transform="scale(5.2439976765999825) rotate(296.973791945748)" d="M20,0 a10 10 0 0 1 0 20 a10 10 0 0 1 -20 0 v-20 Z"></path>
    </g>
  </g>
  <g class="plant">
    <path class="root stalk" d="M 1250.061678065075 792.7021637447467 C 1250.061678065075 662.3841004957765, 1088.786351005864 501.10877343656534, 966.256086247257 378.57850867795844 S 800.395632853111 378.57850867795844 986.969142965226 192.00499856584355" stroke-width="2.5"></path>
    <path class="branch stalk" d="M 966.256086247257 378.57850867795844 C 966.256086247257 315.9635009857458, 896.7978801034155 246.5052948419043, 896.7978801034155 162.63788342660777 S 835.5994145375589 162.63788342660777 762.8774664593578 89.91593534840668" stroke-width="0.6741347035267498"></path>
    <path class="branch stalk" d="M 966.256086247257 378.57850867795844 C 910.4694091970832 378.57850867795844, 861.7250017802965 329.8341012611717, 931.0283870515138 260.53071598995433 S 931.0283870515138 183.87283587823507 847.5730429073897 267.3281800223592" stroke-width="1.2690965969213972"></path>
    <path class="branch stalk" d="M 966.256086247257 378.57850867795844 C 914.9255765714776 378.57850867795844, 976.129685134132 317.37440011530396, 976.129685134132 258.0113844256161 S 904.1088111625822 258.0113844256161 961.7896497088834 200.33054587931494" stroke-width="1.3909750322405423"></path>
    <circle fill="red" r="2">
      <animateMotion dur="5s" repeatCount="indefinite" data-leaf="flower0" path="M 1250.061678065075 792.7021637447467 C 1250.061678065075 662.3841004957765, 1088.786351005864 501.10877343656534, 966.256086247257 378.57850867795844 S 800.395632853111 378.57850867795844 986.969142965226 192.00499856584355"></animateMotion>
    </circle>
    <circle fill="red" r="2">
      <animateMotion dur="5s" repeatCount="indefinite" data-leaf="plant0leaf0" path="M 1250.061678065075 792.7021637447467 C 1250.061678065075 662.3841004957765, 1088.786351005864 501.10877343656534, 966.256086247257 378.57850867795844 C 966.256086247257 315.9635009857458, 896.7978801034155 246.5052948419043, 896.7978801034155 162.63788342660777 S 835.5994145375589 162.63788342660777 762.8774664593578 89.91593534840668"></animateMotion>
    </circle>
    <circle fill="red" r="2">
      <animateMotion dur="5s" repeatCount="indefinite" data-leaf="plant0leaf1" path="M 1250.061678065075 792.7021637447467 C 1250.061678065075 662.3841004957765, 1088.786351005864 501.10877343656534, 966.256086247257 378.57850867795844 C 910.4694091970832 378.57850867795844, 861.7250017802965 329.8341012611717, 931.0283870515138 260.53071598995433 S 931.0283870515138 183.87283587823507 847.5730429073897 267.3281800223592"></animateMotion>
    </circle>
    <circle fill="red" r="2">
      <animateMotion dur="5s" repeatCount="indefinite" data-leaf="plant0leaf2" path="M 1250.061678065075 792.7021637447467 C 1250.061678065075 662.3841004957765, 1088.786351005864 501.10877343656534, 966.256086247257 378.57850867795844 C 914.9255765714776 378.57850867795844, 976.129685134132 317.37440011530396, 976.129685134132 258.0113844256161 S 904.1088111625822 258.0113844256161 961.7896497088834 200.33054587931494"></animateMotion>
    </circle>
    <g transform="translate(762.8774664593578,89.91593534840668)">
      <path class="leaf" transform="scale(0.44000000000000006) rotate(8.229173821794383)" d="M20,0 a10 10 0 0 1 0 20 a10 10 0 0 1 -20 0 v-20 Z"></path>
    </g>
    <g transform="translate(847.5730429073897,267.3281800223592)">
      <path class="leaf" transform="scale(0.44000000000000006) rotate(116.2266513985316)" d="M20,0 a10 10 0 0 1 0 20 a10 10 0 0 1 -20 0 v-20 Z"></path>
    </g>
    <g transform="translate(961.7896497088834,200.33054587931494)">
      <path class="leaf" transform="scale(0.44000000000000006) rotate(215.85198526351633)" d="M20,0 a10 10 0 0 1 0 20 a10 10 0 0 1 -20 0 v-20 Z"></path>
    </g>
    <g transform="translate(762.8774664593578,89.91593534840668)">
      <path class="fading leaf" transform="scale(5.2439976765999825) rotate(-14.37376082144561)" d="M20,0 a10 10 0 0 1 0 20 a10 10 0 0 1 -20 0 v-20 Z"></path>
    </g>
    <g transform="translate(847.5730429073897,267.3281800223592)">
      <path class="fading leaf" transform="scale(5.2439976765999825) rotate(124.11233108331311)" d="M20,0 a10 10 0 0 1 0 20 a10 10 0 0 1 -20 0 v-20 Z"></path>
    </g>
    <g transform="translate(961.7896497088834,200.33054587931494)">
      <path class="fading leaf" transform="scale(5.2439976765999825) rotate(237.68229478260372)" d="M20,0 a10 10 0 0 1 0 20 a10 10 0 0 1 -20 0 v-20 Z"></path>
    </g>
    <g transform="translate(986.969142965226,192.00499856584355)">
      <path class="flower" transform="scale(2.357947691000002) rotate(26.965584144814173)" d="M0,0 a10 10 0 0 1 0 20 a10 10 0 0 1 -20 0 a10 10 0 0 1 0 -20 a10 10 0 0 1 20 0 Z"></path>
    </g>
    <g transform="translate(986.969142965226,192.00499856584355)">
      <path class="fading flower" transform="scale(6.115909044841463) rotate(26.965584144814173)" d="M0,0 a10 10 0 0 1 0 20 a10 10 0 0 1 -20 0 a10 10 0 0 1 0 -20 a10 10 0 0 1 20 0 Z"></path>
    </g>
  </g>
  <g class="plant">
    <path class="root stalk" d="M 1059.5162143374084 1036.3713458787593 C 1059.5162143374084 875.3496190610972, 943.5995315518819 759.4329362755707, 785.5264089545881 759.4329362755707 S 891.7395272652742 653.2198179648846 779.0251243119907 653.2198179648846" stroke-width="2.5"></path>
    <path class="branch stalk" d="M 785.5264089545881 759.4329362755707 C 855.0411767781354 689.9181684520233, 770.1609007520524 605.0378924259403, 681.2100226041031 605.0378924259403 S 765.2084782420409 521.0394367880025 765.2084782420409 578.3174225957043" stroke-width="0.5755444589654233"></path>
    <path class="branch stalk" d="M 785.5264089545881 759.4329362755707 C 830.0020615326999 803.9085888536825, 875.6300244992515 758.280625887131, 956.5799264804307 839.2305278683102 S 956.5799264804307 781.0732532044137 1006.0117597085703 731.6414199762742" stroke-width="0.6790304072807032"></path>
    <circle fill="red" r="2">
      <animateMotion dur="5s" repeatCount="indefinite" data-leaf="flower0" path="M 1059.5162143374084 1036.3713458787593 C 1059.5162143374084 875.3496190610972, 943.5995315518819 759.4329362755707, 785.5264089545881 759.4329362755707 S 891.7395272652742 653.2198179648846 779.0251243119907 653.2198179648846"></animateMotion>
    </circle>
    <circle fill="red" r="2">
      <animateMotion dur="5s" repeatCount="indefinite" data-leaf="plant0leaf0" path="M 1059.5162143374084 1036.3713458787593 C 1059.5162143374084 875.3496190610972, 943.5995315518819 759.4329362755707, 785.5264089545881 759.4329362755707 C 855.0411767781354 689.9181684520233, 770.1609007520524 605.0378924259403, 681.2100226041031 605.0378924259403 S 765.2084782420409 521.0394367880025 765.2084782420409 578.3174225957043"></animateMotion>
    </circle>
    <circle fill="red" r="2">
      <animateMotion dur="5s" repeatCount="indefinite" data-leaf="plant0leaf1" path="M 1059.5162143374084 1036.3713458787593 C 1059.5162143374084 875.3496190610972, 943.5995315518819 759.4329362755707, 785.5264089545881 759.4329362755707 C 830.0020615326999 803.9085888536825, 875.6300244992515 758.280625887131, 956.5799264804307 839.2305278683102 S 956.5799264804307 781.0732532044137 1006.0117597085703 731.6414199762742"></animateMotion>
    </circle>
    <g transform="translate(765.2084782420409,578.3174225957043)">
      <path class="leaf" transform="scale(0.44000000000000006) rotate(62.21788226003136)" d="M20,0 a10 10 0 0 1 0 20 a10 10 0 0 1 -20 0 v-20 Z"></path>
    </g>
    <g transform="translate(1006.0117597085703,731.6414199762742)">
      <path class="leaf" transform="scale(0.44000000000000006) rotate(67.54032729732594)" d="M20,0 a10 10 0 0 1 0 20 a10 10 0 0 1 -20 0 v-20 Z"></path>
    </g>
    <g transform="translate(765.2084782420409,578.3174225957043)">
      <path class="fading leaf" transform="scale(5.2439976765999825) rotate(39.99455730961117)" d="M20,0 a10 10 0 0 1 0 20 a10 10 0 0 1 -20 0 v-20 Z"></path>
    </g>
    <g transform="translate(1006.0117597085703,731.6414199762742)">
      <path class="fading leaf" transform="scale(5.2439976765999825) rotate(65.29047614092863)" d="M20,0 a10 10 0 0 1 0 20 a10 10 0 0 1 -20 0 v-20 Z"></path>
    </g>
    <g transform="translate(779.0251243119907,653.2198179648846)">
      <path class="flower" transform="scale(2.357947691000002) rotate(58.643711482288296)" d="M0,0 a10 10 0 0 1 0 20 a10 10 0 0 1 -20 0 a10 10 0 0 1 0 -20 a10 10 0 0 1 20 0 Z"></path>
    </g>
    <g transform="translate(779.0251243119907,653.2198179648846)">
      <path class="fading flower" transform="scale(6.115909044841463) rotate(58.643711482288296)" d="M0,0 a10 10 0 0 1 0 20 a10 10 0 0 1 -20 0 a10 10 0 0 1 0 -20 a10 10 0 0 1 20 0 Z"></path>
    </g>
  </g>
  <g class="plant">
    <path class="root stalk" d="M 1105.5074782007453 872.1201150325048 C 1105.5074782007453 737.3702154331738, 1212.757353335693 630.1203402982259, 1055.898936484333 630.1203402982259 S 1148.546343504407 537.4729332781518 981.4639252505353 537.4729332781518" stroke-width="2.5"></path>
    <path class="branch stalk" d="M 1055.898936484333 630.1203402982259 C 1055.898936484333 562.9146073793003, 1103.8258062198981 562.9146073793003, 1103.8258062198981 496.15769483588247 S 1025.7308423716368 574.2526586841437 1025.7308423716368 519.3197886504287" stroke-width="0.9721468469849148"></path>
    <path class="branch stalk" d="M 1055.898936484333 630.1203402982259 C 990.7933434530553 630.1203402982259, 990.7933434530553 548.9999727528746, 1071.017032085564 468.77628412036563 S 1004.4826806170256 468.77628412036563 1101.1687980867757 372.0901666506154" stroke-width="0.8739050132130262"></path>
    <path class="branch stalk" d="M 1055.898936484333 630.1203402982259 C 990.145202382742 630.1203402982259, 990.145202382742 714.6535173821754, 1079.929672560986 624.8690472039315 S 998.7114608503979 543.6508354933433 1048.5884400521945 493.7738562915466" stroke-width="1.2325696162865598"></path>
    <path class="branch stalk" d="M 1055.898936484333 630.1203402982259 C 1007.0895984725216 581.3110022864145, 1007.0895984725216 520.3894072392575, 932.484927904948 520.3894072392575 S 932.484927904948 467.2043507702749 887.9087078663935 467.2043507702749" stroke-width="1.4870074050421525"></path>
    <circle fill="red" r="2">
      <animateMotion dur="5s" repeatCount="indefinite" data-leaf="flower0" path="M 1105.5074782007453 872.1201150325048 C 1105.5074782007453 737.3702154331738, 1212.757353335693 630.1203402982259, 1055.898936484333 630.1203402982259 S 1148.546343504407 537.4729332781518 981.4639252505353 537.4729332781518"></animateMotion>
    </circle>
    <circle fill="red" r="2">
      <animateMotion dur="5s" repeatCount="indefinite" data-leaf="plant0leaf0" path="M 1105.5074782007453 872.1201150325048 C 1105.5074782007453 737.3702154331738, 1212.757353335693 630.1203402982259, 1055.898936484333 630.1203402982259 C 1055.898936484333 562.9146073793003, 1103.8258062198981 562.9146073793003, 1103.8258062198981 496.15769483588247 S 1025.7308423716368 574.2526586841437 1025.7308423716368 519.3197886504287"></animateMotion>
    </circle>
    <circle fill="red" r="2">
      <animateMotion dur="5s" repeatCount="indefinite" data-leaf="plant0leaf1" path="M 1105.5074782007453 872.1201150325048 C 1105.5074782007453 737.3702154331738, 1212.757353335693 630.1203402982259, 1055.898936484333 630.1203402982259 C 990.7933434530553 630.1203402982259, 990.7933434530553 548.9999727528746, 1071.017032085564 468.77628412036563 S 1004.4826806170256 468.77628412036563 1101.1687980867757 372.0901666506154"></animateMotion>
    </circle>
    <circle fill="red" r="2">
      <animateMotion dur="5s" repeatCount="indefinite" data-leaf="plant0leaf2" path="M 1105.5074782007453 872.1201150325048 C 1105.5074782007453 737.3702154331738, 1212.757353335693 630.1203402982259, 1055.898936484333 630.1203402982259 C 990.145202382742 630.1203402982259, 990.145202382742 714.6535173821754, 1079.929672560986 624.8690472039315 S 998.7114608503979 543.6508354933433 1048.5884400521945 493.7738562915466"></animateMotion>
    </circle>
    <circle fill="red" r="2">
      <animateMotion dur="5s" repeatCount="indefinite" data-leaf="plant0leaf3" path="M 1105.5074782007453 872.1201150325048 C 1105.5074782007453 737.3702154331738, 1212.757353335693 630.1203402982259, 1055.898936484333 630.1203402982259 C 1007.0895984725216 581.3110022864145, 1007.0895984725216 520.3894072392575, 932.484927904948 520.3894072392575 S 932.484927904948 467.2043507702749 887.9087078663935 467.2043507702749"></animateMotion>
    </circle>
    <g transform="translate(1025.7308423716368,519.3197886504287)">
      <path class="leaf" transform="scale(0.44000000000000006) rotate(325.0700208362852)" d="M20,0 a10 10 0 0 1 0 20 a10 10 0 0 1 -20 0 v-20 Z"></path>
    </g>
    <g transform="translate(1101.1687980867757,372.0901666506154)">
      <path class="leaf" transform="scale(0.44000000000000006) rotate(209.86598212145134)" d="M20,0 a10 10 0 0 1 0 20 a10 10 0 0 1 -20 0 v-20 Z"></path>
    </g>
    <g transform="translate(1048.5884400521945,493.7738562915466)">
      <path class="leaf" transform="scale(0.44000000000000006) rotate(103.04889819807698)" d="M20,0 a10 10 0 0 1 0 20 a10 10 0 0 1 -20 0 v-20 Z"></path>
    </g>
    <g transform="translate(887.9087078663935,467.2043507702749)">
      <path class="leaf" transform="scale(0.44000000000000006) rotate(215.75083426514152)" d="M20,0 a10 10 0 0 1 0 20 a10 10 0 0 1 -20 0 v-20 Z"></path>
    </g>
    <g transform="translate(1025.7308423716368,519.3197886504287)">
      <path class="fading leaf" transform="scale(5.2439976765999825) rotate(325.50342679002887)" d="M20,0 a10 10 0 0 1 0 20 a10 10 0 0 1 -20 0 v-20 Z"></path>
    </g>
    <g transform="translate(1101.1687980867757,372.0901666506154)">
      <path class="fading leaf" transform="scale(5.2439976765999825) rotate(211.91043179700625)" d="M20,0 a10 10 0 0 1 0 20 a10 10 0 0 1 -20 0 v-20 Z"></path>
    </g>
    <g transform="translate(1048.5884400521945,493.7738562915466)">
      <path class="fading leaf" transform="scale(5.2439976765999825) rotate(113.2269298183665)" d="M20,0 a10 10 0 0 1 0 20 a10 10 0 0 1 -20 0 v-20 Z"></path>
    </g>
    <g transform="translate(887.9087078663935,467.2043507702749)">
      <path class="fading leaf" transform="scale(5.2439976765999825) rotate(228.94741264641004)" d="M20,0 a10 10 0 0 1 0 20 a10 10 0 0 1 -20 0 v-20 Z"></path>
    </g>
    <g transform="translate(981.4639252505353,537.4729332781518)">
      <path class="flower" transform="scale(2.357947691000002) rotate(24.493716031382093)" d="M0,0 a10 10 0 0 1 0 20 a10 10 0 0 1 -20 0 a10 10 0 0 1 0 -20 a10 10 0 0 1 20 0 Z"></path>
    </g>
    <g transform="translate(981.4639252505353,537.4729332781518)">
      <path class="fading flower" transform="scale(6.115909044841463) rotate(24.493716031382093)" d="M0,0 a10 10 0 0 1 0 20 a10 10 0 0 1 -20 0 a10 10 0 0 1 0 -20 a10 10 0 0 1 20 0 Z"></path>
    </g>
  </g>
</svg>