<svg class="header-logo" title="Dedalus"
  xmlns="http://www.w3.org/2000/svg" viewBox="0 0 153 49" xml:space="preserve">
  <g class="svg-header-logo-white">
    <linearGradient id="a" gradientUnits="userSpaceOnUse" x1="19.346" y1="50" x2="19.346" y2="9.85" gradientTransform="matrix(1 0 0 -1 0 50)">
      <stop offset=".16" style="stop-color:#0081be"></stop>
      <stop offset=".27" style="stop-color:#2b8cc1"></stop>
      <stop offset=".4" style="stop-color:#639bc5"></stop>
      <stop offset=".59" style="stop-color:#88b0d1"></stop>
      <stop offset=".64" style="stop-color:#8cb2d2"></stop>
      <stop offset=".7" style="stop-color:#99b8d5"></stop>
      <stop offset=".77" style="stop-color:#afc3db"></stop>
      <stop offset=".83" style="stop-color:#cdd2e2"></stop>
      <stop offset=".83" style="stop-color:#ced2e2"></stop>
      <stop offset=".91" style="stop-color:#e2e4ec"></stop>
      <stop offset="1" style="stop-color:#f6f6f6"></stop>
    </linearGradient>
    <path fill="url(#a)" d="M34.2 28.8 11.6 40.2v-5.8l19.8-9.8c1.6-.8 2.2-2.7 1.4-4.2-.3-.6-.8-1.1-1.4-1.4L0 3l5.8-3 28.5 14.4c4 2 5.6 6.9 3.6 10.9-.9 1.5-2.1 2.8-3.7 3.5z"></path>
    <path fill="#FFF" d="M31.5 18.9 0 3v43l5.8 3V11.8L30 23.9c.4.2.8.5 1 .9l.4-.2c1.6-.8 2.2-2.7 1.4-4.2-.2-.7-.7-1.2-1.3-1.5z"></path>
    <linearGradient id="b" gradientUnits="userSpaceOnUse" x1="5.826" y1="19.608" x2="38.68" y2="19.608" gradientTransform="matrix(1 0 0 -1 0 50)">
      <stop offset="0" style="stop-color:#0078b3"></stop>
      <stop offset=".36" style="stop-color:#468dc4"></stop>
      <stop offset=".42" style="stop-color:#5695c9"></stop>
      <stop offset=".58" style="stop-color:#7fa9d4"></stop>
      <stop offset=".66" style="stop-color:#8fb1d9"></stop>
      <stop offset=".69" style="stop-color:#99b7dc"></stop>
      <stop offset=".82" style="stop-color:#bfcfe9"></stop>
      <stop offset=".93" style="stop-color:#d6ddf0"></stop>
      <stop offset="1" style="stop-color:#dee2f3"></stop>
    </linearGradient>
    <path fill="url(#b)" d="M38.7 21.8c0 3-1.8 5.8-4.5 7.1L11.6 40.2V14.7l-5.8-2.9V49l28.4-14.3c2.7-1.4 4.4-4.1 4.4-7.2l.1-5.7z"></path>
    <path fill="#FFF" d="M67.4 16.9c-1.2-.9-2.5-1.5-3.9-1.8-1.6-.4-3.2-.6-4.8-.6h-6.9v21h7.5c1.5 0 3-.2 4.5-.7 1.4-.4 2.6-1.1 3.8-2 1.1-.9 2-2 2.6-3.3.7-1.4 1-2.9 1-4.5 0-1.7-.3-3.4-1-4.9-.7-1.2-1.6-2.3-2.8-3.2zm-1.7 11c-.4.8-.9 1.5-1.6 2-.7.5-1.5.9-2.4 1.1-1 .2-2 .3-3 .3h-2.4V18.8H59c.9 0 1.9.1 2.8.4.8.2 1.6.6 2.3 1.1.7.5 1.2 1.1 1.6 1.9.4.8.6 1.8.6 2.7 0 1-.2 2-.6 3zm18.9-5.1c-.6-.7-1.3-1.2-2.1-1.5-.9-.4-1.8-.5-2.8-.5-1.1 0-2.1.2-3.1.5-.9.3-1.8.9-2.5 1.5-.7.7-1.3 1.5-1.7 2.4-.8 2-.8 4.2 0 6.2.4.9 1 1.7 1.7 2.4s1.6 1.2 2.5 1.5c1 .4 2.1.5 3.1.5 1.2 0 2.3-.3 3.4-.7 1.1-.5 2-1.2 2.7-2.1l-3.1-2.3c-.4.5-.8.9-1.3 1.3-.6.3-1.2.5-1.8.5-.8 0-1.6-.2-2.2-.8-.6-.5-1-1.2-1.2-2h10.3v-1.4c0-1.1-.1-2.1-.5-3.1-.3-.9-.8-1.7-1.4-2.4zm-8.5 3.9c0-.7.3-1.4.9-1.9.3-.3.6-.5 1-.6.4-.2.9-.2 1.3-.2.7 0 1.5.3 2 .8s.8 1.2.7 1.9h-5.9zm22.4-13.6v9.5h-.1c-.5-.7-1.2-1.2-2-1.5-.8-.3-1.7-.4-2.6-.4-1 0-1.9.2-2.7.6-.8.4-1.5 1-2.1 1.7-.6.7-1 1.6-1.3 2.4-.3.9-.5 1.9-.5 2.9s.2 2 .5 3c.3.9.8 1.7 1.4 2.4.6.7 1.4 1.2 2.3 1.5.9.4 1.9.6 2.9.5.5 0 1-.1 1.4-.2.4-.1.9-.3 1.3-.5s.7-.4 1-.7c.3-.2.5-.5.7-.8h.1v1.9h4.1V13h-4.4zm-.6 17.8c-1.5 1.3-3.7 1.3-5.2 0-.6-.7-1-1.7-.9-2.6 0-1 .3-1.9.9-2.6 1.5-1.3 3.7-1.3 5.2 0 .6.7 1 1.7.9 2.6.1 1-.3 1.9-.9 2.6zm18.6-8.2c-.5-.7-1.2-1.1-2-1.4-1-.4-2.1-.5-3.2-.5-1.2 0-2.3.2-3.4.6-1.1.4-2.1 1-2.9 1.7l2.4 2.4c.5-.5 1-.9 1.6-1.3.6-.3 1.3-.5 2-.5s1.5.3 2 .7c.6.5.9 1.2.8 1.9h-2c-.7 0-1.4.1-2.2.2-.7.1-1.4.2-2.1.5-.6.2-1.2.5-1.8.9-.5.4-1 .9-1.3 1.4-.3.7-.5 1.4-.5 2.1 0 .7.1 1.3.4 1.9.3.5.6 1 1.1 1.4.5.4 1 .7 1.6.8 1.5.4 3.1.4 4.5-.2.8-.3 1.5-.9 2-1.7h.1v1.8h4.1v-7.3c0-1.1-.1-2.1-.3-3.2 0-.7-.3-1.5-.9-2.2zm-2.7 7.4c0 .8-.4 1.6-1 2-.3.2-.7.4-1.1.5-.4.1-.8.2-1.3.2s-1-.1-1.4-.4c-.4-.2-.7-.7-.7-1.2 0-.4.2-.9.5-1.2.3-.3.8-.5 1.2-.6l1.5-.3H113.9v1zm5.8-17h4.4v22.4h-4.4V13.1zm15.3 8h4.4v14.4H135v-2c-.2.3-.4.6-.6.8-.3.3-.6.5-.9.7-.4.2-.8.4-1.2.5-.5.1-1 .2-1.5.2-.9 0-1.9-.1-2.7-.5-.7-.3-1.2-.8-1.6-1.4-.4-.7-.7-1.4-.8-2.2-.1-.9-.2-1.8-.2-2.7v-8h4.4v8.4c0 .4.1.8.3 1.2.1.4.4.7.7.9.4.3.9.4 1.3.4.5 0 1-.1 1.4-.3.3-.2.6-.5.8-.8.2-.4.3-.8.4-1.2.1-.5.1-.9.1-1.4v-7zm18.1 10c0 .8-.2 1.6-.6 2.3-.4.6-.9 1.1-1.6 1.5-.7.4-1.4.6-2.1.8-.8.1-1.6.2-2.3.2-1 0-2.1-.1-3-.4-1-.3-1.9-.8-2.6-1.5l2.7-3c.4.5.8.9 1.4 1.2.5.3 1.1.4 1.8.4.5 0 .9-.1 1.4-.2.4-.1.6-.4.6-.8s-.2-.7-.5-.8c-.4-.2-.9-.4-1.4-.5l-1.8-.4c-.6-.1-1.2-.4-1.8-.7-1.3-.6-2-2-1.9-3.4 0-.8.2-1.5.5-2.2.3-.6.8-1.1 1.4-1.5.6-.4 1.2-.7 1.9-.9.7-.2 1.5-.3 2.2-.3 1 0 1.9.1 2.9.4.9.3 1.8.8 2.5 1.5l-2.7 2.7c-.6-.8-1.6-1.2-2.6-1.2-.4 0-.8.1-1.1.3-.3.2-.6.5-.5.9 0 .4.2.7.5.8.4.2.9.3 1.4.4l1.8.4c.6.1 1.2.4 1.8.7.6.3 1 .8 1.4 1.3.1.5.3 1.3.3 2z"></path>
  </g>
  <g class="svg-header-logo-primary">
    <linearGradient id="c" gradientUnits="userSpaceOnUse" x1="19.346" y1="50" x2="19.346" y2="9.85" gradientTransform="matrix(1 0 0 -1 0 50)">
      <stop offset="0" style="stop-color:#4a96d2"></stop>
      <stop offset=".13" style="stop-color:#4a96d2"></stop>
      <stop offset=".28" style="stop-color:#6aa3d1"></stop>
      <stop offset=".5" style="stop-color:#95b4d1"></stop>
      <stop offset=".71" style="stop-color:#b4c0d1"></stop>
      <stop offset=".88" style="stop-color:#c7c8d1"></stop>
      <stop offset=".99" style="stop-color:#cecbd1"></stop>
      <stop offset="1" style="stop-color:#cecbd1"></stop>
    </linearGradient>
    <path fill="url(#c)" d="M34.2 28.8 11.6 40.2v-5.8l19.8-9.8c1.6-.8 2.2-2.7 1.4-4.2-.3-.6-.8-1.1-1.4-1.4L0 3l5.8-3 28.5 14.4c4 2 5.6 6.9 3.6 10.9-.9 1.5-2.1 2.8-3.7 3.5z"></path>
    <path fill="#185092" d="M31.5 18.9 0 3v43l5.8 3V11.8L30 23.9c.4.2.8.5 1 .9l.4-.2c1.6-.8 2.2-2.7 1.4-4.2-.2-.7-.7-1.2-1.3-1.5z"></path>
    <linearGradient id="d" gradientUnits="userSpaceOnUse" x1="5.826" y1="19.608" x2="38.68" y2="19.608" gradientTransform="matrix(1 0 0 -1 0 50)">
      <stop offset="0" style="stop-color:#4a96d2"></stop>
      <stop offset=".09" style="stop-color:#4a96d2"></stop>
      <stop offset=".54" style="stop-color:#2b6baa"></stop>
      <stop offset=".87" style="stop-color:#185092"></stop>
      <stop offset="1" style="stop-color:#185092"></stop>
    </linearGradient>
    <path fill="url(#d)" d="M38.7 21.8c0 3-1.8 5.8-4.5 7.1L11.6 40.2V14.7l-5.8-2.9V49l28.4-14.3c2.7-1.4 4.4-4.1 4.4-7.2l.1-5.7z"></path>
    <path fill="#185092" d="M67.4 16.9c-1.1-.8-2.4-1.4-3.9-1.8-1.5-.4-3.1-.6-4.8-.6h-6.9v21h7.5c1.6 0 3-.2 4.5-.7 1.4-.5 2.7-1.1 3.8-2 1.1-.9 1.9-2 2.6-3.3.6-1.3 1-2.8 1-4.5 0-1.9-.3-3.6-1-4.9-.8-1.3-1.7-2.3-2.8-3.2zm-1.7 11c-.4.8-.9 1.5-1.6 2-.7.5-1.5.9-2.4 1.1-.9.2-1.9.3-3 .3h-2.4V18.8H59c1 0 1.9.1 2.8.4.9.2 1.6.6 2.3 1.1.7.5 1.2 1.1 1.6 1.9.4.8.6 1.7.6 2.7 0 1.1-.2 2.2-.6 3zm18.9-5.1c-.6-.7-1.3-1.2-2.1-1.5-.8-.4-1.8-.5-2.8-.5-1.1 0-2.2.2-3.1.5-1 .4-1.8.9-2.5 1.5-.7.7-1.3 1.5-1.7 2.4-.4.9-.6 2-.6 3.1s.2 2.2.6 3.1c.4.9 1 1.7 1.7 2.4s1.6 1.2 2.5 1.5c1 .4 2 .5 3.1.5 1.2 0 2.3-.3 3.4-.7 1.1-.5 2-1.2 2.7-2.1l-3.1-2.3c-.4.5-.8.9-1.3 1.3-.5.3-1.1.5-1.9.5-.9 0-1.6-.3-2.2-.8-.6-.5-1-1.2-1.2-2h10.3v-1.4c0-1.1-.2-2.2-.5-3.1-.3-.9-.7-1.7-1.3-2.4zm-8.2 2.9c.1-.3.4-.6.6-.9.3-.2.6-.5 1-.6.4-.2.8-.2 1.3-.2.8 0 1.5.3 2 .8s.8 1.2.7 1.9h-5.9c0-.4.1-.7.3-1zm22.1-3c-.6-.7-1.2-1.2-2-1.5-.8-.3-1.7-.4-2.6-.4-1 0-1.9.2-2.7.6-.8.4-1.5 1-2.1 1.7-.6.7-1 1.5-1.3 2.4-.3.9-.5 1.9-.5 2.9 0 1.1.2 2.1.5 3 .3.9.8 1.7 1.4 2.4.6.7 1.4 1.2 2.2 1.5.9.4 1.8.5 2.9.5.5 0 1-.1 1.4-.2.5-.1.9-.3 1.3-.5s.7-.5 1-.7.5-.5.7-.8h.1v1.9h4.1V13.1h-4.4v9.6zm-.6 8.3c-.6.7-1.5 1-2.6 1s-2-.3-2.6-1c-.6-.7-.9-1.6-.9-2.6 0-1.1.3-2 .9-2.6.6-.7 1.5-1 2.6-1s2 .3 2.6 1c.6.7.9 1.6.9 2.6s-.3 1.9-.9 2.6zm18.6-8.3c-.5-.6-1.2-1.1-2-1.4-.8-.3-1.9-.5-3.2-.5-1.2 0-2.3.2-3.4.6-1.1.4-2.1 1-2.9 1.7l2.4 2.4c.5-.5 1-.9 1.6-1.3.6-.3 1.2-.5 2-.5s1.4.2 2 .7c.6.5.8 1.1.8 1.9h-2c-.7 0-1.4.1-2.2.2-.7.1-1.4.3-2.1.5-.7.2-1.3.5-1.8.9s-.9.8-1.2 1.4c-.3.6-.5 1.3-.5 2.1 0 .7.1 1.4.4 1.9.3.6.7 1 1.1 1.4.5.4 1 .7 1.6.8.6.2 1.3.3 1.9.3.9 0 1.8-.2 2.6-.5s1.5-.9 2-1.7h.1v1.8h4.1v-7.3c0-1.2-.1-2.3-.3-3.2-.1-.8-.5-1.6-1-2.2zm-2.7 7.5c0 .5-.1.8-.3 1.2-.2.3-.4.6-.8.8-.3.2-.7.4-1.1.5-.4.1-.8.2-1.3.2s-1-.1-1.4-.4c-.5-.3-.7-.6-.7-1.2 0-.5.2-.9.5-1.2.3-.3.7-.5 1.2-.6l1.5-.3H113.8v1zm5.8-17.1h4.4v22.4h-4.4V13.1zm15.3 8h4.4v14.4H135v-2c-.2.3-.4.6-.6.8-.2.3-.5.5-.9.7-.4.2-.8.4-1.2.5-.5.1-.9.2-1.5.2-1.1 0-2-.2-2.7-.5-.7-.3-1.2-.8-1.6-1.4-.4-.6-.6-1.3-.8-2.2-.1-.8-.2-1.7-.2-2.7v-8h4.4v8.4c0 .4.1.9.3 1.2.1.4.4.7.7.9.3.2.7.4 1.3.4.6 0 1-.1 1.4-.3.4-.2.6-.5.8-.8.2-.3.3-.7.4-1.2.1-.4.1-.9.1-1.4v-7zm18.1 10c0 .9-.2 1.7-.6 2.3-.4.6-.9 1.1-1.6 1.5-.6.4-1.3.6-2.1.8-.8.1-1.6.2-2.3.2-1 0-2-.1-3.1-.4-1-.3-1.9-.8-2.6-1.5l2.7-3c.4.5.9.9 1.4 1.2.5.3 1.1.4 1.8.4.5 0 1-.1 1.4-.2.4-.1.6-.4.6-.8s-.2-.7-.5-.8c-.4-.2-.8-.3-1.4-.5-.6-.1-1.2-.3-1.8-.4-.6-.1-1.2-.4-1.8-.7-.6-.3-1-.7-1.4-1.3-.4-.5-.5-1.3-.5-2.2 0-.8.2-1.6.5-2.2.3-.6.8-1.1 1.4-1.5.6-.4 1.2-.7 1.9-.9.7-.2 1.5-.3 2.2-.3.9 0 1.9.1 2.9.4 1 .3 1.8.8 2.5 1.5l-2.7 2.7c-.7-.8-1.5-1.2-2.6-1.2-.4 0-.7.1-1.1.3-.4.2-.5.5-.5.9s.2.6.5.8c.4.2.8.3 1.4.4.6.1 1.2.3 1.8.4.6.1 1.2.4 1.8.7.6.3 1 .7 1.4 1.3.2.5.4 1.2.4 2.1z"></path>
  </g>
</svg>