<?xml version="1.0" encoding="utf-8"?>
<svg version="1.1" id="Layer_1" xmlns="http://www.w3.org/2000/svg" xmlns:xlink="http://www.w3.org/1999/xlink" x="0px" y="0px"
	 viewBox="0 0 174 25" style="enable-background:new 0 0 174 25;" xml:space="preserve">
<style type="text/css">
	.st0{fill:#EC6A37;}
	.st1{fill-rule:evenodd;clip-rule:evenodd;fill:#EC6A37;}
</style>
<g>
	<path class="st0" d="M138.7908,5.2216c-0.7804,0-1.4342-0.2382-1.9617-0.7144c-0.5063-0.4969-0.7594-1.1079-0.7594-1.8327
		c0-0.7248,0.2531-1.3254,0.7594-1.8016c0.5275-0.4969,1.1813-0.7455,1.9617-0.7455c0.7806,0,1.4238,0.2486,1.93,0.7455
		c0.5275,0.4762,0.791,1.0768,0.791,1.8016c0,0.7248-0.2635,1.3358-0.791,1.8327C140.2146,4.9833,139.5714,5.2216,138.7908,5.2216z"
		/>
	<path class="st1" d="M121.5557,7.7687c-0.9915,0.5177-1.7718,1.1906-2.3413,2.0191V1.494h-4.4295v22.9863h4.4295v-2.4541
		c0.5905,0.8077,1.3709,1.4703,2.3413,1.988c0.9912,0.4972,2.1409,0.7455,3.4487,0.7455c1.4974,0,2.8475-0.3728,4.0499-1.1183
		c1.2233-0.7455,2.1831-1.7912,2.8792-3.1371c0.7171-1.3669,1.0757-2.9302,1.0757-4.6904c0-1.7604-0.3587-3.303-1.0757-4.6284
		c-0.6961-1.3461-1.6559-2.3815-2.8792-3.1063c-1.2023-0.7248-2.5524-1.0872-4.0499-1.0872
		C123.7176,6.992,122.5682,7.251,121.5557,7.7687z M127.8204,13.1424c0.4429,0.7455,0.6644,1.636,0.6644,2.6716
		c0,1.0561-0.2215,1.9672-0.6644,2.7332c-0.422,0.7663-0.9915,1.3565-1.7085,1.7708c-0.6961,0.414-1.4554,0.6211-2.278,0.6211
		c-0.8016,0-1.561-0.1968-2.278-0.5903c-0.6961-0.414-1.2656-1.0042-1.7085-1.7705c-0.4219-0.7663-0.6328-1.6671-0.6328-2.7024
		s0.2108-1.9361,0.6328-2.7024c0.443-0.7663,1.0125-1.3461,1.7085-1.7394c0.7171-0.4142,1.4764-0.6214,2.278-0.6214
		c0.8226,0,1.582,0.1967,2.278,0.5902C126.8289,11.7965,127.3984,12.3761,127.8204,13.1424z"/>
	<path class="st0" d="M55.9023,2.7986v21.6816h-4.4295V10.3777l-5.9166,14.1025h-3.3538l-5.9482-14.1025v14.1025h-4.4295V2.7986
		h5.0307l7.024,16.1213l7.024-16.1213H55.9023z"/>
	<path class="st1" d="M76.8926,15.5031c0,0.6214-0.0423,1.1805-0.1265,1.6774H63.9518c0.1056,1.2425,0.5485,2.2158,1.3291,2.9199
		c0.7803,0.7041,1.7402,1.0561,2.8792,1.0561c1.6453,0,2.8159-0.6937,3.512-2.081h4.7776
		c-0.5062,1.6564-1.4767,3.0233-2.9108,4.1001c-1.4344,1.0561-3.1956,1.5841-5.2838,1.5841c-1.6875,0-3.2062-0.3624-4.5564-1.0872
		c-1.3289-0.7455-2.373-1.7912-3.1323-3.1374c-0.7381-1.3459-1.1074-2.8991-1.1074-4.6593c0-1.7809,0.3693-3.3442,1.1074-4.6904
		c0.7383-1.3461,1.7718-2.3815,3.1007-3.1063c1.3289-0.7248,2.8582-1.0872,4.588-1.0872c1.6663,0,3.1533,0.352,4.4612,1.0561
		c1.3289,0.7041,2.3517,1.7085,3.069,3.0132C76.5233,12.3453,76.8926,13.8257,76.8926,15.5031z M72.3049,14.2606
		c-0.0213-1.1183-0.4326-2.0087-1.2339-2.6713c-0.8016-0.6833-1.7824-1.0252-2.9425-1.0252c-1.097,0-2.0249,0.3315-2.7843,0.9941
		c-0.7383,0.6418-1.1919,1.5426-1.3608,2.7024H72.3049z"/>
	<path class="st0" d="M85.5993,19.1685v-8.3247h3.9233V7.2718h-3.9233V3.0161h-4.4612v4.2556H79.05v3.5721h2.0882v8.2936
		c0,3.562,1.8667,5.3428,5.6002,5.3428h2.7843v-3.6654h-2.0566c-0.6751,0-1.16-0.1242-1.4554-0.3728
		C85.7365,20.1727,85.5993,19.7484,85.5993,19.1685z"/>
	<path class="st1" d="M91.8861,15.8139c0-1.7397,0.348-3.2823,1.0441-4.6284c0.7171-1.3461,1.6769-2.3815,2.8792-3.1063
		c1.2233-0.7248,2.5838-1.0872,4.0815-1.0872c1.3079,0,2.4469,0.259,3.4171,0.7766c0.9915,0.5177,1.7824,1.1699,2.373,1.9569V7.2718
		h4.4612v17.2085h-4.4612v-2.516c-0.5695,0.8075-1.3605,1.4804-2.373,2.0188c-0.9915,0.5179-2.1409,0.7766-3.4487,0.7766
		c-1.4764,0-2.8266-0.3728-4.0499-1.1183c-1.2023-0.7455-2.1621-1.7912-2.8792-3.1371
		C92.2341,19.1374,91.8861,17.574,91.8861,15.8139z M105.6809,15.8759c0-1.0561-0.2108-1.9569-0.6328-2.7024
		c-0.4219-0.7663-0.9915-1.3461-1.7085-1.7394c-0.7171-0.4142-1.4871-0.6214-2.3097-0.6214c-0.8226,0-1.582,0.1967-2.278,0.5902
		c-0.6961,0.3935-1.2656,0.9731-1.7085,1.7394c-0.4219,0.7455-0.6328,1.636-0.6328,2.6716c0,1.0353,0.2108,1.9465,0.6328,2.7332
		c0.443,0.7663,1.0125,1.3565,1.7085,1.7708c0.7171,0.414,1.4764,0.6211,2.278,0.6211c0.8226,0,1.5926-0.1968,2.3097-0.5903
		c0.7171-0.414,1.2866-0.9938,1.7085-1.7394C105.4701,17.8431,105.6809,16.9319,105.6809,15.8759z"/>
	<path class="st0" d="M136.5444,24.4802h4.4296V7.2718h-4.4296V24.4802z"/>
	<path class="st0" d="M150.8239,10.8438v8.3247c0,0.5799,0.1372,1.0042,0.4113,1.2736c0.2954,0.2486,0.7806,0.3728,1.4554,0.3728
		h2.0569v3.6654h-2.7846c-3.7335,0-5.6002-1.7809-5.6002-5.3428v-8.2936h-2.0882V7.2718h2.0882V3.0161h4.4612v4.2556h3.9236v3.5721
		H150.8239z"/>
	<path class="st0" d="M16.2162,8.6336c0-0.1537-0.1053-0.2887-0.2539-0.3374c-1.9606-0.6397-3.3745-2.4551-3.3745-4.5949
		c0-0.2765,0.0237-0.5477,0.0691-0.8115c0.0407-0.2377-0.1372-0.4672-0.3826-0.4672H0.4001c-0.2055,0-0.3722,0.1635-0.3722,0.3653
		V24.07c0,0.2015,0.1667,0.3653,0.3722,0.3653h21.6774c0.2055,0,0.3722-0.1638,0.3722-0.3653v-9.1314
		c0-0.2029-0.1683-0.368-0.3749-0.368H22.031C19.705,14.5707,16.2162,11.9882,16.2162,8.6336z"/>
	<path class="st1" d="M173.8474,17.2685c0.0832-0.4985,0.1247-1.0595,0.1247-1.683c0-1.6828-0.3634-3.1685-1.0906-4.4564
		c-0.7064-1.3089-1.7141-2.3166-3.023-3.0231c-1.2882-0.7064-2.7529-1.0598-4.3945-1.0598c-1.7035,0-3.2099,0.3637-4.5189,1.0909
		c-1.3089,0.7272-2.327,1.766-3.0542,3.1164c-0.7272,1.3507-1.0907,2.9194-1.0907,4.7061c0,1.766,0.3635,3.3243,1.0907,4.6747
		c0.7479,1.3504,1.7763,2.3998,3.0852,3.1477c1.3299,0.7272,2.8258,1.0906,4.4878,1.0906c2.0571,0,3.792-0.5296,5.2046-1.5894
		c1.4129-1.0803,2.3687-2.4514,2.8672-4.1137H168.83c-0.6857,1.3921-1.8388,2.088-3.4593,2.088
		c-1.122,0-2.0672-0.3531-2.8361-1.0595c-0.7687-0.7064-1.205-1.6827-1.3089-2.9295H173.8474z M168.2379,11.6588
		c0.7894,0.665,1.1946,1.5583,1.2153,2.6803h-8.1965c0.1664-1.1635,0.6131-2.0675,1.3403-2.7114
		c0.7479-0.665,1.662-0.9973,2.7425-0.9973C166.482,10.6303,167.4482,10.9733,168.2379,11.6588z"/>
</g>
</svg>
