<svg viewBox="0 0 126 16" fill="#009BE6"
  xmlns="http://www.w3.org/2000/svg" class="w-110 text-[#009BE6] lg:w-[127px] lg:h-16">
  <g id="Layer_1" clip-path="url(#clip0_5121_557)">
    <path id="Vector" d="M12.1699 0.0292969H6.17775C5.29011 0.0292969 3.08999 0.217111 2.32085 2.52678C1.50252 4.97731 1.76859 6.33673 1.76859 6.55361C1.76859 6.77049 1.88932 7.93986 3.67356 8.60616C4.0559 8.74925 5.42202 9.24786 5.78424 9.37977C6.72555 9.72186 7.75852 10.2719 7.32476 11.837C6.93348 13.2411 6.52432 13.3373 5.21856 13.3373H0.460593L0 16.0047H8.01565C8.61263 16.0047 10.7949 15.7766 11.5215 13.0377C12.1856 10.5335 12.0157 9.36412 11.9799 9.16513C11.9441 8.96614 11.8882 7.80124 10.0749 7.11258C9.56736 6.9203 7.69592 6.2473 7.40526 6.14445C7.04304 6.017 5.9564 5.50945 6.39016 3.94657C6.67859 2.88676 7.09 2.70565 8.07379 2.66988C8.15651 2.66764 11.7541 2.66988 11.7541 2.66988L12.1699 0.0292969Z" fill="#009BE6"></path>
    <path id="Vector_2" d="M125.708 0.0292969H119.331C119.331 0.0292969 117.12 0.170158 115.776 1.52734C115.776 1.52734 114.22 2.83533 113.453 7.4502C113.453 7.4502 112.825 10.3233 112.959 12.3736C113.147 15.1953 115.662 16.0025 117.149 16.0025H124.143L124.604 13.3351H119.551C119.001 13.3127 117.438 13.069 117.556 10.9896C117.726 8.1165 118.133 6.52678 119.003 4.22158C119.562 2.74143 121.335 2.66988 121.335 2.66988H125.279L125.704 0.0315328L125.708 0.0292969Z" fill="#009BE6"></path>
    <path id="Vector_3" d="M112.689 0.0292969H108.304L105.614 16.0002H110.003L112.689 0.0292969Z" fill="#009BE6"></path>
    <path id="Vector_4" d="M20.2439 10.0548L19.2892 16H14.8756L15.9443 9.34153L12.8633 0H17.1674L18.9628 5.45333L22.1556 0H26.3591L20.2439 10.0548Z" fill="#009BE6"></path>
    <path id="Vector_5" d="M48.6997 2.67188H44.9166L42.6405 16H38.2336L40.5075 2.67188H36.2593L36.6729 0H49.1156L48.6997 2.67188Z" fill="#009BE6"></path>
    <path id="Vector_6" d="M106.314 2.67188H102.529L100.255 16H95.8459L98.122 2.67188H93.8716L94.2875 0H106.73L106.314 2.67188Z" fill="#009BE6"></path>
    <path id="Vector_7" d="M60.6395 2.68083H54.0235L53.4757 6.05254H58.3701L57.9475 8.71101H53.0509L52.3019 13.3192H58.9201L58.4953 16H47.4478L50.0145 0H61.0621L60.6395 2.68083Z" fill="#009BE6"></path>
    <path id="Vector_8" d="M74.5264 0.0292969L70.0904 10.1467L68.8204 0.0292969H62.2737L59.7114 16.0002H63.8053L65.5091 5.55417L66.8238 16.0002H70.5868L75.3358 5.16513L75.2195 5.88508C75.2195 5.8985 75.2173 5.90968 75.2151 5.91862L73.5985 16.0002H77.6656L80.2279 0.0292969H74.5264Z" fill="#009BE6"></path>
    <path id="Vector_9" d="M35.6958 0.0292969H29.7036C28.816 0.0292969 26.6159 0.217111 25.8467 2.52678C25.0284 4.97731 25.2967 6.33673 25.2967 6.55361C25.2967 6.77049 25.4174 7.93986 27.2017 8.60616C27.5818 8.74925 28.9501 9.24786 29.3124 9.37977C30.2537 9.72186 31.2866 10.2719 30.8529 11.837C30.4616 13.2411 30.0524 13.3373 28.7467 13.3373H23.9865L23.5259 16.0047H31.5415C32.1385 16.0047 34.3207 15.7766 35.0474 13.0377C35.7115 10.5335 35.5415 9.36412 35.5058 9.16513C35.47 8.96614 35.4141 7.80124 33.6008 7.11258C33.0932 6.9203 31.2218 6.2473 30.9311 6.14445C30.5689 6.017 29.4823 5.50945 29.916 3.94657C30.2045 2.88676 30.6159 2.70565 31.6019 2.66988C31.6846 2.66764 35.2822 2.66988 35.2822 2.66988L35.698 0.0315328L35.6958 0.0292969Z" fill="#009BE6"></path>
    <path id="Vector_10" d="M91.8076 0.0292969H85.9183L78.3521 16.0002H82.3968L84.2682 12.0517H89.6545L90.323 16.0002H94.5086L91.8076 0.0292969ZM85.337 9.79565L88.2369 3.67156L89.2587 9.79565H85.337Z" fill="#009BE6"></path>
  </g>
  <defs>
    <clipPath id="clip0_5121_557">
      <rect width="125.708" height="16" fill="white"></rect>
    </clipPath>
  </defs>
  <title>Systematic - Home</title>
</svg>